<?xml version="1.0" standalone="no"?>
<!DOCTYPE svg PUBLIC "-//W3C//DTD SVG 1.1//EN" "http://www.w3.org/Graphics/SVG/1.1/DTD/svg11.dtd" >
<svg xmlns="http://www.w3.org/2000/svg">
<metadata></metadata>
<defs>
<font id="avenir_nextregular" horiz-adv-x="1187" >
<font-face units-per-em="2048" ascent="1638" descent="-410" />
<missing-glyph horiz-adv-x="512" />
<glyph horiz-adv-x="1024" />
<glyph horiz-adv-x="1024" />
<glyph unicode="&#xd;" horiz-adv-x="0" />
<glyph unicode=" "  horiz-adv-x="512" />
<glyph unicode="&#x09;" horiz-adv-x="512" />
<glyph unicode="&#xa0;" horiz-adv-x="512" />
<glyph unicode="!" horiz-adv-x="671" d="M225 98q0 41 31 77q30 34 80 34t80 -34q30 -35 30 -77t-30 -76t-80 -34t-80 34q-31 36 -31 76zM262 393v1057h148v-1057h-148z" />
<glyph unicode="&#x22;" horiz-adv-x="829" d="M205 969v481h123v-481h-123zM502 969v481h123v-481h-123z" />
<glyph unicode="#" horiz-adv-x="1138" d="M72 438v123h225l45 332h-221v123h239l60 434h125l-60 -434h273l59 434h125l-59 -434h184v-123h-203l-45 -332h195v-123h-211l-62 -438h-125l62 438h-272l-62 -438h-125l62 438h-209zM422 561h272l45 332h-272z" />
<glyph unicode="$" d="M106 193l117 81q26 -45 68 -79q40 -33 85 -56q41 -21 87 -34q40 -11 76 -11v588q-74 23 -141 51q-66 28 -127 78q-54 44 -92 114q-36 66 -36 160q0 87 32 159q32 71 86 121q57 52 126 78q73 28 152 32v147h98v-147q42 -1 101 -13q61 -12 103 -30q47 -20 95 -52 q45 -30 80 -71l-113 -86q-45 65 -120 101q-72 34 -146 36v-563q82 -29 153 -61q74 -34 133 -84q56 -48 94 -120q36 -69 36 -170q0 -84 -32 -156q-33 -73 -88 -121q-60 -52 -132 -79q-79 -30 -164 -31v-147h-98v147q-140 5 -249 64q-112 61 -184 154zM285 1098 q0 -110 69 -173q70 -64 185 -94v529q-108 -5 -181 -75t-73 -187zM637 94q40 1 93 18q48 15 87 48q41 35 64 85q24 53 24 128q0 104 -76 176q-75 70 -192 108v-563z" />
<glyph unicode="%" horiz-adv-x="1705" d="M78 1116q0 75 27 141q27 65 77 114q52 50 115 76q68 28 141 28q74 0 142 -28q62 -25 114 -76q50 -49 77 -114q28 -68 28 -141t-28 -141q-27 -65 -77 -114q-52 -51 -114 -76q-66 -27 -142 -27q-75 0 -141 27q-63 26 -115 76q-50 49 -77 114q-27 66 -27 141zM201 1116 q0 -52 19 -94q20 -44 51 -75t75 -49q41 -17 92 -17t92 17q44 18 75 49t51 75q20 45 20 94t-20 94q-20 44 -51 75t-75 49q-43 18 -92 18q-48 0 -92 -18t-75 -49t-51 -75q-19 -42 -19 -94zM338 -8l924 1521l104 -55l-922 -1521zM907 334q0 73 28 141q27 65 77 114 q52 51 114 76q66 27 142 27q75 0 141 -27q63 -26 115 -76q50 -49 77 -114q27 -66 27 -141t-27 -141q-27 -65 -77 -114q-52 -50 -115 -76q-68 -28 -141 -28q-74 0 -142 28q-62 25 -114 76q-50 49 -77 114q-28 68 -28 141zM1030 334q0 -49 20 -94q20 -44 51 -75t75 -49 q43 -18 92 -18q48 0 92 18t75 49t51 75q19 42 19 94t-19 94q-20 44 -51 75t-75 49q-41 17 -92 17t-92 -17q-44 -18 -75 -49t-51 -75q-20 -45 -20 -94z" />
<glyph unicode="&#x26;" horiz-adv-x="1441" d="M100 377q0 80 26 147q25 64 71 118q46 53 106 93q69 45 133 72q-30 30 -64 72q-39 48 -57 80q-25 44 -40 90q-15 47 -15 96q0 81 29 145q30 65 78 108q50 44 114 66q67 23 140 23q69 0 135 -22q63 -21 111 -63q49 -43 76 -103q28 -62 28 -138q0 -70 -28 -129 q-26 -55 -74 -103q-47 -47 -104 -82q-66 -41 -120 -67l338 -348l201 352h166l-267 -448l326 -336h-205l-205 215q-90 -123 -194 -181q-106 -59 -252 -59q-93 0 -175 27q-83 27 -145 77q-60 49 -97 125q-36 75 -36 173zM252 375q0 -64 23 -113q24 -51 66 -87q40 -35 97 -56 q56 -21 117 -21q116 0 198 54q79 52 148 159l-383 402q-132 -61 -199 -141t-67 -197zM403 1143q0 -38 17 -81q15 -39 41 -79q23 -35 52 -68q29 -32 48 -47q38 17 96 51q48 28 85 62q38 35 62 80q23 43 23 100q0 91 -58 148q-59 57 -146 57q-97 0 -158 -60q-62 -60 -62 -163z " />
<glyph unicode="'" horiz-adv-x="532" d="M205 969v481h123v-481h-123z" />
<glyph unicode="(" horiz-adv-x="614" d="M66 590q0 134 22 259q22 127 63 246q40 118 94 221q54 104 120 189l106 -67q-59 -81 -109 -181q-46 -92 -84 -206q-36 -107 -57 -226q-20 -111 -20 -235q0 -125 20 -236q21 -117 57 -225q39 -117 84 -207q48 -96 109 -180l-106 -68q-64 83 -120 190q-54 103 -94 221 q-41 120 -63 245t-22 260z" />
<glyph unicode=")" horiz-adv-x="614" d="M143 -258q65 94 108 180q51 102 86 207q34 102 56 225q21 117 21 236q0 118 -21 235q-23 126 -56 226q-34 102 -86 206q-45 89 -108 181l107 67q65 -88 119 -189q54 -100 95 -221q38 -112 62 -246q23 -130 23 -259q0 -130 -23 -260q-23 -131 -62 -245q-41 -121 -95 -221 q-56 -105 -119 -190z" />
<glyph unicode="*" horiz-adv-x="909" d="M63 1135l43 114l287 -92v293h123v-293l287 92l43 -114l-289 -93l184 -247l-98 -74l-188 254l-189 -254l-98 74l184 247z" />
<glyph unicode="+" horiz-adv-x="1363" d="M160 559v123h461v461h122v-461h461v-123h-461v-461h-122v461h-461z" />
<glyph unicode="," horiz-adv-x="532" d="M92 -287l137 482h146l-166 -482h-117z" />
<glyph unicode="-" horiz-adv-x="655" d="M98 438v117h459v-117h-459z" />
<glyph unicode="." horiz-adv-x="532" d="M156 98q0 42 30 77q30 34 80 34t80 -34q31 -36 31 -77q0 -40 -31 -76q-30 -34 -80 -34t-80 34t-30 76z" />
<glyph unicode="/" horiz-adv-x="757" d="M10 2l621 1485l117 -41l-619 -1483z" />
<glyph unicode="0" d="M119 723q0 145 22 278q23 137 78 245t147 174q93 67 228 67q133 0 226 -67q92 -66 147 -174q55 -106 79 -245q23 -131 23 -278t-23 -278q-24 -136 -79 -243q-55 -106 -147 -173q-91 -66 -226 -66q-136 0 -228 66q-92 67 -147 173q-56 109 -78 243q-22 133 -22 278z M268 723q0 -109 15 -221q16 -118 51 -204q38 -92 100 -150t160 -58q96 0 158 58t100 150q37 90 52 204q16 120 16 221q0 100 -16 222q-15 117 -52 206q-38 93 -100 152t-158 59q-98 0 -160 -59t-100 -152q-35 -86 -51 -206q-15 -114 -15 -222z" />
<glyph unicode="1" d="M233 1147l369 303h131v-1450h-147v1268l-262 -224z" />
<glyph unicode="2" d="M104 0v154l594 600q39 39 65 70q31 37 56 79q24 41 39 87q14 43 14 95q0 65 -22 115q-22 51 -63 87q-40 36 -92 55q-54 20 -109 20q-116 0 -197 -73q-79 -72 -102 -185l-146 29q15 75 55 141q41 67 98 112q60 47 132 74q73 27 160 27q86 0 167 -26q75 -24 138 -76 q59 -48 95 -124q36 -75 36 -174q0 -67 -20 -129q-19 -59 -51 -112q-36 -60 -74 -102q-39 -43 -91 -95l-522 -518h768v-131h-928z" />
<glyph unicode="3" d="M100 260l140 51q38 -105 122 -163q85 -58 197 -58q59 0 120 22q59 21 102 61q45 42 71 97q27 57 27 131q0 81 -32 139q-30 55 -85 91q-53 35 -121 50q-67 15 -139 15h-64v127h64q70 0 131 15t107 46q45 31 73 83q27 51 27 123q0 60 -23 111q-24 52 -62 86q-40 36 -92 55 q-54 20 -110 20q-93 0 -163 -43q-71 -44 -114 -127l-124 65q68 117 172 174q103 56 237 56q85 0 163 -26q76 -25 135 -75q57 -48 92 -121q34 -71 34 -167q0 -129 -72 -216q-73 -88 -180 -116v-4q125 -27 209 -120t84 -241q0 -103 -38 -185q-36 -79 -101 -137 q-61 -55 -149 -86q-86 -30 -179 -30q-159 0 -278 77q-120 78 -181 220z" />
<glyph unicode="4" d="M86 350v144l614 956h193v-971h213v-129h-213v-350h-143v350h-664zM240 479h510v805h-5z" />
<glyph unicode="5" d="M115 227l133 60q40 -93 118 -144q80 -53 175 -53q72 0 136 26q63 25 107 71q46 47 71 110q26 64 26 137q0 78 -28 145q-26 62 -76 109t-113 70q-66 24 -144 24t-154 -21q-78 -21 -147 -59l14 748h740v-131h-604l-11 -449q51 18 100 25q56 8 101 8q103 0 189 -33t149 -93 q64 -61 98 -144q35 -85 35 -184q0 -104 -35 -194q-35 -89 -98 -154q-60 -62 -153 -101q-87 -37 -195 -37q-158 0 -266 72q-109 73 -168 192z" />
<glyph unicode="6" d="M123 420q0 113 39 209q37 92 92 184l395 637h170l-407 -633l4 -4q34 24 92 39q56 14 115 14q96 0 175 -32q78 -32 140 -92q57 -56 93 -141q34 -81 34 -181q0 -102 -35 -187q-34 -82 -98 -143q-59 -56 -150 -93q-84 -34 -188 -34t-188 34q-91 37 -150 93q-64 61 -98 143 q-35 85 -35 187zM270 420q0 -72 24 -132q26 -65 66 -105q44 -44 103 -69q61 -26 131 -26t131 26q57 24 102 69q42 42 67 105q24 60 24 132q0 69 -23 130q-22 60 -65 104q-44 46 -102 69q-62 25 -134 25t-134 -25q-59 -24 -103 -69q-41 -42 -64 -104q-23 -61 -23 -130z" />
<glyph unicode="7" d="M160 1319v131h860v-135l-584 -1315h-166l600 1319h-710z" />
<glyph unicode="8" d="M129 381q0 73 21 136q22 67 57 113q39 52 87 85q51 36 109 53v4q-48 16 -89 48q-37 29 -68 76q-28 44 -45 96q-17 54 -17 108q0 88 33 160q33 73 89 121q60 52 130 78q76 28 158 28q79 0 157 -28q70 -25 131 -78q56 -48 89 -121q33 -72 33 -160q0 -54 -17 -108 q-17 -52 -45 -96q-30 -46 -69 -76q-41 -32 -89 -48v-4q119 -35 197 -137t78 -250q0 -95 -38 -173q-38 -77 -101 -131t-149 -84q-85 -30 -177 -30t-177 30q-86 30 -149 84t-101 131q-38 78 -38 173zM276 397q0 -65 23 -123q23 -57 65 -98q41 -40 100 -64q58 -24 130 -24 t130 24q59 24 100 64q42 41 65 98q22 56 22 123t-22 121q-22 55 -65 96q-44 42 -100 64q-57 22 -130 22t-130 -22q-56 -22 -100 -64q-43 -41 -65 -96q-23 -57 -23 -121zM328 1092q0 -61 20 -105q22 -49 58 -82q38 -35 85 -54q49 -20 103 -20t103 20q47 19 85 54q36 33 58 82 q20 44 20 105q0 60 -20 107q-21 50 -57 86q-34 34 -84 56q-48 21 -105 21q-58 0 -106 -21q-50 -22 -84 -56t-56 -86q-20 -47 -20 -107z" />
<glyph unicode="9" d="M127 1030q0 98 35 185q34 84 98 145q59 56 150 93q84 34 188 34t188 -34q91 -37 150 -93q64 -61 98 -145q35 -87 35 -185q0 -113 -39 -209q-37 -92 -92 -184l-395 -637h-170l407 633l-4 4q-34 -24 -92 -39q-56 -14 -115 -14q-96 0 -175 32q-78 32 -140 92q-57 56 -93 141 q-34 81 -34 181zM274 1030q0 -69 23 -130q23 -62 64 -104q44 -45 103 -69q62 -25 134 -25t134 25q59 24 103 69q41 42 64 104q23 61 23 130q0 70 -24 131q-25 64 -67 106q-45 45 -102 69q-61 26 -131 26t-131 -26q-57 -24 -102 -69q-42 -42 -67 -106q-24 -61 -24 -131z" />
<glyph unicode=":" horiz-adv-x="614" d="M197 98q0 42 30 77q30 34 80 34t80 -34q31 -36 31 -77q0 -40 -31 -76q-30 -34 -80 -34t-80 34t-30 76zM197 860q0 42 30 77q30 34 80 34t80 -34q31 -36 31 -77t-31 -77q-29 -33 -80 -33t-80 33q-30 35 -30 77z" />
<glyph unicode=";" horiz-adv-x="614" d="M119 -287l137 482h152l-166 -482h-123zM197 860q0 42 30 77q30 34 80 34t80 -34q31 -36 31 -77t-31 -77q-29 -33 -80 -33t-80 33q-30 35 -30 77z" />
<glyph unicode="&#x3c;" horiz-adv-x="1363" d="M160 573v95l1044 487v-123l-878 -411l878 -412v-123z" />
<glyph unicode="=" horiz-adv-x="1363" d="M160 406v122h1044v-122h-1044zM160 713v123h1044v-123h-1044z" />
<glyph unicode="&#x3e;" horiz-adv-x="1363" d="M160 86v123l878 412l-878 411v123l1044 -487v-95z" />
<glyph unicode="?" horiz-adv-x="987" d="M98 1133q30 157 141 250q110 92 269 92q83 0 155 -24q74 -25 125 -70q54 -46 85 -113q32 -69 32 -154q0 -69 -14 -115q-15 -50 -40 -88t-60 -70q-36 -33 -74 -65q-40 -32 -73 -63q-29 -27 -48 -61q-20 -36 -27 -70q-8 -42 -8 -95v-94h-143v123q0 59 13 104q13 44 37 82 q25 39 53 67q1 1 61 58l57 52q49 39 85 94q34 52 34 133q0 57 -21 102q-22 47 -55 76q-35 31 -81 47q-48 17 -99 17q-109 0 -179 -68q-69 -67 -85 -172zM393 98q0 41 31 77q30 34 80 34t80 -34q30 -35 30 -77t-30 -76t-80 -34t-80 34q-31 36 -31 76z" />
<glyph unicode="@" horiz-adv-x="1638" d="M72 723q0 165 61 303q62 140 168 242q106 101 249 160q144 59 304 59q138 0 270 -41q131 -41 233 -123q102 -83 162 -205q60 -123 60 -289q0 -123 -33 -217t-87 -157q-56 -65 -126 -96q-71 -31 -151 -31q-92 0 -135 45q-43 44 -43 104h-9q-12 -25 -32 -48 q-22 -25 -56 -48q-36 -24 -74 -38q-42 -15 -94 -15q-71 0 -125 25t-93 70q-37 43 -58 106t-21 137q0 85 29 169q29 83 81 147q53 65 128 103q76 39 170 39q79 0 134 -35q56 -35 79 -88h8l21 93h127l-82 -381q-5 -18 -8 -36q-5 -32 -7 -45q-5 -24 -6 -46q-2 -30 -2 -37 q0 -18 3 -36t15 -33q13 -16 30 -24q22 -10 52 -10q51 0 94 29q40 27 71 78q29 48 46 117q17 70 17 145q0 132 -44 235q-44 102 -123 171q-81 71 -186 104q-110 35 -237 35q-143 0 -256 -49q-117 -51 -198 -135q-83 -86 -128 -204t-45 -255q0 -144 47 -262q46 -116 132 -199 t203 -126q120 -44 261 -44q185 0 316 56t237 159l76 -94q-122 -124 -284 -183q-166 -61 -359 -61q-179 0 -320 56q-147 58 -247 157q-102 101 -159 241q-56 139 -56 306zM592 657q0 -30 7 -65t26 -70q18 -32 50 -54q33 -22 81 -22q68 0 118 35t80 87q30 53 45 112 q15 60 15 111q0 36 -8 76q-7 36 -28 68q-20 30 -52 48q-33 18 -82 18q-62 0 -108 -31t-79 -81q-32 -48 -49 -111q-16 -60 -16 -121z" />
<glyph unicode="A" horiz-adv-x="1433" d="M20 0l627 1450h144l622 -1450h-164l-159 381h-750l-158 -381h-162zM395 516h639l-319 770z" />
<glyph unicode="B" horiz-adv-x="1302" d="M193 0v1450h432q87 0 166 -17q84 -18 150 -60q69 -44 109 -113q42 -72 42 -181q0 -112 -70 -199q-69 -85 -186 -112v-4q140 -16 234 -110q93 -93 93 -253q0 -88 -38 -164q-37 -74 -107 -127q-69 -52 -170 -81q-102 -29 -225 -29h-430zM340 127h274q81 0 153 15 q75 16 127 49q53 34 87 89q33 54 33 130q0 143 -98 214q-97 70 -275 70h-301v-567zM340 815h297q53 0 107 12q56 12 100 42q45 30 72 79q28 51 28 121q0 68 -28 118q-28 49 -74 79q-47 30 -111 44q-61 13 -135 13h-256v-508z" />
<glyph unicode="C" horiz-adv-x="1474" d="M115 725q0 165 57 305q57 139 159 241q101 101 239 158q140 58 300 58q78 0 157 -17t144 -46q71 -31 123 -71q51 -39 92 -96l-122 -90q-23 35 -61 70q-36 33 -89 61q-48 25 -112 43q-62 17 -130 17q-141 0 -252 -51t-190 -139t-119 -201q-41 -115 -41 -242 q0 -128 42 -242t120 -201q79 -88 190 -139t250 -51q126 0 238 51q111 50 188 164l115 -74q-37 -55 -89 -104q-51 -48 -121 -86q-68 -37 -151 -58q-86 -22 -182 -22q-164 0 -303 57q-138 56 -239 159q-100 101 -157 241q-56 137 -56 305z" />
<glyph unicode="D" horiz-adv-x="1550" d="M193 0v1450h481q134 0 271 -45t246 -136t177 -228q68 -138 68 -316q0 -181 -68 -317t-177 -227t-246 -136t-271 -45h-481zM340 131h293q165 0 286 51t201 134q79 82 120 190q40 105 40 219t-40 219q-41 108 -120 190q-80 83 -201 134t-286 51h-293v-1188z" />
<glyph unicode="E" horiz-adv-x="1212" d="M193 0v1450h899v-131h-752v-500h702v-129h-702v-559h776v-131h-923z" />
<glyph unicode="F" horiz-adv-x="1150" d="M193 0v1450h874v-131h-727v-504h676v-129h-676v-686h-147z" />
<glyph unicode="G" horiz-adv-x="1595" d="M115 725q0 165 57 305q57 139 159 241q103 103 239 159q138 57 300 57q175 0 304 -51q127 -50 221 -144l-103 -102q-79 82 -180 124q-106 44 -240 44q-139 0 -250 -51t-190 -139q-78 -87 -120 -201t-42 -242t42 -242q42 -115 120 -200q80 -87 190 -138q111 -51 250 -51 q124 0 226 27q105 28 166 67v441h-338v129h485v-654q-116 -71 -256 -106q-138 -35 -285 -35q-164 0 -303 57q-138 56 -239 159q-100 101 -157 241q-56 137 -56 305z" />
<glyph unicode="H" horiz-adv-x="1470" d="M193 0v1450h147v-629h790v629h148v-1450h-148v686h-790v-686h-147z" />
<glyph unicode="I" horiz-adv-x="532" d="M193 0v1450h147v-1450h-147z" />
<glyph unicode="J" horiz-adv-x="1007" d="M51 258l137 37q16 -85 77 -144t159 -59q74 0 125 28q47 26 79 75q28 44 41 107q11 55 11 126v1022h147v-1032q0 -72 -15 -152q-15 -81 -58 -147q-45 -70 -119 -112q-77 -44 -195 -44q-157 0 -260 83q-102 82 -129 212z" />
<glyph unicode="K" horiz-adv-x="1286" d="M193 0v1450h147v-651h2l690 651h211l-731 -657l772 -793h-217l-725 772h-2v-772h-147z" />
<glyph unicode="L" horiz-adv-x="1044" d="M193 0v1450h147v-1319h676v-131h-823z" />
<glyph unicode="M" horiz-adv-x="1814" d="M193 0v1450h225l491 -1200h2l486 1200h225v-1450h-147v1260h-5l-524 -1260h-78l-524 1260h-4v-1260h-147z" />
<glyph unicode="N" horiz-adv-x="1564" d="M193 0v1450h184l844 -1235h4v1235h147v-1450h-184l-844 1247h-4v-1247h-147z" />
<glyph unicode="O" horiz-adv-x="1740" d="M115 725q0 165 57 305q57 139 159 241q103 103 239 159q138 57 300 57t300 -57t240 -159t159 -241t57 -305q0 -165 -57 -305q-57 -139 -159 -241t-240 -159t-300 -57t-300 57q-136 56 -239 159q-102 102 -159 241q-57 140 -57 305zM270 725q0 -127 41 -242 q40 -114 119 -200q80 -87 190 -138q111 -51 250 -51q140 0 251 51q110 51 190 138q79 86 119 200q40 113 40 242t-40 242t-119 201t-190 139t-251 51q-139 0 -250 -51t-190 -139t-119 -201q-41 -115 -41 -242z" />
<glyph unicode="P" d="M193 0v1450h409q111 0 201 -24q91 -24 154 -71q65 -49 100 -121q35 -73 35 -171q0 -99 -36 -171q-36 -73 -101 -121q-67 -50 -155 -73q-92 -24 -202 -24h-258v-674h-147zM340 799h250q175 0 264 67q90 67 90 197q0 135 -93 198q-92 62 -261 62h-250v-524z" />
<glyph unicode="Q" horiz-adv-x="1726" d="M115 743q0 163 55 298q56 138 154 236q100 100 232 155t292 55q158 0 290 -55t232 -155q98 -98 154 -236q55 -135 55 -298q0 -193 -85 -351t-255 -257v-4h438v-131h-829q-160 0 -292 55t-232 155q-99 98 -154 235q-55 135 -55 298zM270 743q0 -123 40 -233t114 -196 t181 -135q109 -50 243 -50q132 0 241 50q106 49 182 135q74 85 115 196q41 112 41 233q0 122 -41 234q-40 109 -115 195q-77 88 -182 136q-109 50 -241 50q-134 0 -243 -50q-106 -48 -181 -136q-74 -87 -114 -195q-40 -110 -40 -234z" />
<glyph unicode="R" horiz-adv-x="1226" d="M193 0v1450h425q111 0 198 -20q93 -21 158 -67t103 -120q37 -73 37 -180q0 -78 -29 -145q-29 -68 -77 -114q-50 -49 -117 -77q-70 -30 -148 -37l424 -690h-180l-401 678h-246v-678h-147zM340 805h256q179 0 274 64q97 65 97 194q0 71 -27 121t-74 80q-46 30 -114 45 q-63 14 -150 14h-262v-518z" />
<glyph unicode="S" horiz-adv-x="1155" d="M102 178l127 94q46 -77 132 -130q85 -52 200 -52q56 0 113 18q58 18 103 53q46 36 76 88t30 122q0 77 -30 126q-30 50 -79 84q-47 33 -112 56q-42 15 -134 45q-72 22 -141 51q-70 29 -125 75q-54 45 -89 114q-34 67 -34 165q0 105 42 181q41 74 110 125q66 48 149 71 q84 23 162 23q148 0 252 -52q106 -53 158 -124l-117 -94q-44 63 -121 105q-73 40 -178 40q-55 0 -109 -16q-55 -16 -100 -51q-47 -36 -73 -85q-27 -51 -27 -120q0 -72 26 -115q27 -45 71 -77q43 -31 100 -52q26 -10 118 -41q68 -21 153 -53q77 -28 138 -75q61 -46 100 -117 q39 -70 39 -179q0 -107 -42 -187t-108 -131t-152 -75q-89 -25 -171 -25q-67 0 -131 13q-66 14 -125 40q-56 25 -110 68q-52 41 -91 94z" />
<glyph unicode="T" horiz-adv-x="1167" d="M25 1319v131h1118v-131h-486v-1319h-147v1319h-485z" />
<glyph unicode="U" horiz-adv-x="1454" d="M184 541v909h148v-893q0 -92 20 -171q21 -84 67 -147q47 -65 122 -105q76 -40 186 -40t186 40q75 40 122 105q46 63 67 147q20 79 20 171v893h148v-909q0 -90 -24 -192t-85 -187q-62 -86 -167 -143q-103 -56 -267 -56q-165 0 -268 56q-104 56 -166 143q-61 85 -85 187 t-24 192z" />
<glyph unicode="V" horiz-adv-x="1275" d="M6 1450h160l471 -1260h4l471 1260h158l-555 -1450h-156z" />
<glyph unicode="W" horiz-adv-x="1990" d="M29 1450h155l359 -1247h4l362 1247h176l363 -1247h4l354 1247h156l-428 -1450h-172l-365 1245h-4l-364 -1245h-172z" />
<glyph unicode="X" horiz-adv-x="1329" d="M39 0l532 762l-485 688h184l398 -586l395 586h176l-481 -690l532 -760h-184l-442 653l-441 -653h-184z" />
<glyph unicode="Y" horiz-adv-x="1232" d="M0 1450h184l437 -702l440 702h172l-543 -825v-625h-147v625z" />
<glyph unicode="Z" horiz-adv-x="1171" d="M63 0v123l848 1196h-825v131h1010v-123l-846 -1196h858v-131h-1045z" />
<glyph unicode="[" horiz-adv-x="614" d="M119 -319v1818h332v-110h-197v-1598h197v-110h-332z" />
<glyph unicode="\" horiz-adv-x="757" d="M10 1446l117 41l621 -1485l-119 -39z" />
<glyph unicode="]" horiz-adv-x="614" d="M164 -209h196v1598h-196v110h332v-1818h-332v110z" />
<glyph unicode="^" horiz-adv-x="1363" d="M164 563l469 887h98l469 -887h-127l-391 740l-391 -740h-127z" />
<glyph unicode="_" horiz-adv-x="1024" d="M0 -154h1024v-102h-1024v102z" />
<glyph unicode="`" horiz-adv-x="491" d="M-20 1450h186l205 -295h-121z" />
<glyph unicode="a" horiz-adv-x="1093" d="M113 266q0 112 56 175q59 67 150 97q96 32 217 41q122 9 252 9v30q0 126 -65 187t-191 61q-86 0 -159 -30t-125 -82l-78 92q59 59 157 98q97 39 220 39q77 0 145 -21q67 -21 119 -65t80 -109q29 -67 29 -153v-420q0 -62 4 -115q4 -59 12 -100h-125q-4 25 -10 76 q-4 36 -4 80h-4q-67 -97 -149 -139t-200 -42q-51 0 -113 16q-58 15 -107 50t-80 90t-31 135zM256 272q0 -52 19 -86q20 -35 53 -56q36 -23 72 -31q40 -9 81 -9q73 0 131 26q59 26 97 69q36 41 59 102q20 54 20 121v71h-40q-93 0 -174 -7q-84 -7 -157 -29q-70 -21 -116 -62 q-45 -41 -45 -109z" />
<glyph unicode="b" horiz-adv-x="1304" d="M188 0v1548h140v-755h4q61 94 160 142t202 48q112 0 204 -39t156 -106q63 -66 100 -160q36 -92 36 -199t-36 -198q-37 -94 -100 -160q-65 -68 -156 -107q-92 -39 -204 -39q-100 0 -202 48q-97 46 -160 139h-4v-162h-140zM311 479q0 -79 28 -152q27 -70 77 -122t116 -81 q68 -30 148 -30q86 0 154 30q67 30 113 82q47 53 71 123q24 71 24 150q0 81 -24 151t-71 123q-48 54 -113 83q-68 30 -154 30q-83 0 -148 -29q-67 -30 -116 -82q-50 -53 -77 -123q-28 -73 -28 -153z" />
<glyph unicode="c" horiz-adv-x="1024" d="M115 479q0 111 37 201q39 94 103 160q66 67 161 105q96 38 211 38q96 0 195 -42q100 -43 161 -124l-109 -78q-34 54 -101 91q-66 36 -144 36q-87 0 -152 -29q-69 -31 -116 -82q-47 -52 -73 -123q-26 -72 -26 -153t26 -151t72 -122q45 -51 115 -82q67 -30 152 -30 q91 0 155 35q65 36 105 90l104 -78q-61 -76 -150 -121t-214 -45q-115 0 -211 38q-94 37 -161 106q-64 66 -103 160q-37 90 -37 200z" />
<glyph unicode="d" horiz-adv-x="1304" d="M115 479q0 107 36 199q37 94 100 160q64 67 156 106q91 39 203 39q104 0 203 -48t160 -142h4v755h139v-1548h-139v162h-4q-63 -93 -160 -139q-102 -48 -203 -48q-112 0 -203 39t-156 107q-63 66 -100 160q-36 91 -36 198zM262 479q0 -77 25 -150q24 -71 70 -123t114 -82 q67 -30 154 -30q79 0 147 30t117 81q50 52 77 122t27 152q0 83 -27 153t-77 123q-49 52 -117 82q-65 29 -147 29q-87 0 -154 -30t-114 -83q-46 -52 -70 -123q-25 -73 -25 -151z" />
<glyph unicode="e" horiz-adv-x="1171" d="M115 479q0 111 37 201q39 96 102 160q66 68 154 105q90 38 190 38q112 0 199 -38q86 -38 143 -102q56 -64 87 -151q30 -85 30 -184v-31q0 -11 -2 -35h-795q1 -71 29 -135q28 -65 73 -110q48 -48 111 -75q65 -28 137 -28q108 0 188 50q79 49 120 116l104 -82 q-86 -109 -189 -155q-107 -48 -223 -48q-104 0 -197 38q-89 36 -157 106q-64 66 -103 160q-38 93 -38 200zM262 553h653q-6 136 -87 224q-81 89 -230 89q-70 0 -129 -25q-56 -24 -104 -70q-45 -44 -72 -100q-26 -56 -31 -118z" />
<glyph unicode="f" horiz-adv-x="604" d="M25 842v116h200v263q0 163 80 258q79 94 246 94q27 0 57 -3q29 -3 58 -11l-25 -123q-15 4 -45 10q-20 4 -51 4q-55 0 -91 -18t-56 -53q-18 -32 -26 -79q-7 -42 -7 -96v-246h225v-116h-225v-842h-140v842h-200z" />
<glyph unicode="g" horiz-adv-x="1294" d="M115 487q0 103 36 193q37 92 100 158q64 67 156 106q91 39 203 39q106 0 205 -49q101 -50 158 -141h4v165h139v-950q0 -78 -21 -166q-20 -86 -80 -161q-59 -73 -159 -123q-102 -50 -260 -50q-130 0 -254 52q-122 51 -207 141l101 106q56 -73 156 -124q101 -52 210 -52 q102 0 174 30q73 30 116 81q43 50 64 120q21 69 21 146v180h-4q-55 -90 -157 -139q-101 -49 -206 -49q-113 0 -203 37q-93 38 -156 101t-100 155q-36 90 -36 194zM262 492q0 -74 25 -144q25 -69 70 -119q47 -51 114 -81q65 -29 154 -29q82 0 147 26q68 27 117 76 q51 51 77 118q27 69 27 153q0 76 -27 143t-77 119q-51 53 -117 82q-68 30 -147 30q-87 0 -154 -30q-66 -29 -114 -82q-45 -50 -70 -119q-25 -70 -25 -143z" />
<glyph unicode="h" horiz-adv-x="1193" d="M188 0v1548h140v-747h4q39 83 129 133q89 49 192 49q182 0 274 -109q91 -107 91 -286v-588h-139v530q0 71 -13 138q-12 62 -42 105q-31 45 -80 69q-50 24 -126 24q-56 0 -107 -22q-53 -22 -93 -69q-43 -49 -66 -117q-24 -70 -24 -166v-492h-140z" />
<glyph unicode="i" horiz-adv-x="512" d="M158 1327q0 44 30 71t68 27t68 -27t30 -71t-30 -71t-68 -27t-68 27t-30 71zM186 0v958h140v-958h-140z" />
<glyph unicode="j" horiz-adv-x="514" d="M-55 -477l20 117q28 -8 44 -10q24 -3 44 -3q41 0 70 16q26 14 41 42q14 26 19 64q5 42 5 83v1126h140v-1148q0 -54 -13 -112q-12 -52 -43 -96q-30 -42 -83 -68q-54 -26 -134 -26q-13 0 -53 4q-27 3 -57 11zM160 1327q0 44 30 71t68 27t68 -27t30 -71t-30 -71t-68 -27 t-68 27t-30 71z" />
<glyph unicode="k" horiz-adv-x="1044" d="M188 0v1548h140v-1022h6l442 432h201l-483 -438l532 -520h-205l-487 504h-6v-504h-140z" />
<glyph unicode="l" horiz-adv-x="516" d="M188 0v1548h140v-1548h-140z" />
<glyph unicode="m" horiz-adv-x="1808" d="M176 958h133q4 -39 6 -86q2 -62 2 -77h5q41 84 125 136q85 52 190 52q36 0 81 -8q40 -7 82 -32q38 -23 73 -62q35 -40 59 -101q50 99 134 151q85 52 202 52q181 0 273 -109q91 -107 91 -286v-588h-139v530q0 154 -56 244q-57 92 -192 92q-75 0 -128 -30q-51 -29 -84 -81 q-30 -47 -46 -114q-14 -59 -14 -131v-510h-139v559q0 67 -11 127q-10 56 -36 97q-26 42 -70 62q-45 21 -115 21q-51 0 -99 -22q-49 -22 -90 -69t-65 -117t-24 -166v-492h-140v748q0 18 -2 100q-1 60 -6 110z" />
<glyph unicode="n" horiz-adv-x="1189" d="M176 958h133q4 -39 6 -86q2 -62 2 -77h5q40 83 133 136q91 52 194 52q182 0 274 -109q91 -107 91 -286v-588h-140v530q0 76 -12 138t-42 105q-31 45 -80 69q-50 24 -126 24q-56 0 -107 -22q-53 -22 -93 -69q-43 -49 -66 -117q-24 -70 -24 -166v-492h-140v748q0 18 -2 100 q-1 60 -6 110z" />
<glyph unicode="o" horiz-adv-x="1251" d="M115 479q0 108 38 201t105 160q68 68 162 105q96 38 205 38q110 0 206 -38q95 -37 162 -105q69 -68 106 -160q38 -93 38 -201q0 -107 -38 -200q-37 -92 -106 -160q-69 -69 -162 -106q-96 -38 -206 -38q-109 0 -205 38q-93 37 -162 106q-67 67 -105 160t-38 200zM262 479 q0 -78 26 -150q26 -71 72 -123q45 -51 114 -82q66 -30 151 -30q83 0 151 30q70 31 115 82q48 54 73 123t25 150q0 82 -25 151t-73 123q-47 53 -115 83q-67 30 -151 30q-85 0 -151 -30q-68 -31 -114 -83q-46 -53 -72 -123q-26 -72 -26 -151z" />
<glyph unicode="p" horiz-adv-x="1300" d="M184 -492v1450h140v-165h6q60 94 158 142q99 48 202 48q112 0 204 -39t156 -106q63 -66 100 -160q36 -92 36 -199t-36 -198q-37 -94 -100 -160q-65 -68 -156 -107q-92 -39 -204 -39q-101 0 -202 49q-98 47 -158 138h-6v-654h-140zM307 479q0 -79 28 -152q27 -70 77 -122 t116 -81q68 -30 148 -30q86 0 153 30q68 30 114 82q47 53 71 123q24 71 24 150q0 81 -24 151t-71 123t-114 83t-153 30q-83 0 -148 -29q-67 -30 -116 -82q-50 -53 -77 -123q-28 -73 -28 -153z" />
<glyph unicode="q" horiz-adv-x="1300" d="M115 479q0 107 36 199q37 94 100 160q64 67 156 106q91 39 203 39q103 0 202 -48t159 -142h6v165h139v-1450h-139v654h-6q-60 -90 -159 -138q-101 -49 -202 -49q-112 0 -203 39t-156 107q-63 66 -100 160q-36 91 -36 198zM262 479q0 -77 25 -150q24 -71 70 -123t114 -82 q67 -30 154 -30q79 0 147 30t117 81q50 52 77 122t27 152q0 83 -27 153t-77 123q-49 52 -117 82q-65 29 -147 29q-87 0 -154 -30t-114 -83q-46 -52 -70 -123q-25 -73 -25 -151z" />
<glyph unicode="r" horiz-adv-x="737" d="M176 958h133q4 -39 6 -86q2 -62 2 -77h5q41 84 122 136q82 52 185 52q20 0 48 -2q19 -1 44 -8l-19 -131q-8 3 -40 8q-25 4 -58 4q-57 0 -106 -20q-51 -21 -89 -65t-62 -113q-23 -66 -23 -164v-492h-140v748q0 18 -2 100q-1 60 -6 110z" />
<glyph unicode="s" horiz-adv-x="909" d="M78 162l110 82q38 -64 109 -107t158 -43q43 0 86 8q40 7 71 29q34 24 50 52q18 31 18 79q0 76 -73 114q-69 36 -210 70q-34 8 -91 26q-49 15 -89 45q-40 29 -67 75q-27 45 -27 113q0 72 29 125q28 51 76 86q48 34 110 51q60 16 127 16q99 0 194 -45q96 -46 142 -127 l-107 -80q-30 59 -93 97q-64 38 -142 38q-34 0 -74 -8q-34 -7 -66 -27q-27 -17 -46 -47q-17 -27 -17 -67q0 -68 55 -104t174 -60q169 -34 251 -101q81 -66 81 -180q0 -80 -32 -138q-30 -55 -83 -92q-51 -36 -115 -51q-69 -16 -130 -16q-109 0 -211 45q-101 45 -168 142z" />
<glyph unicode="t" horiz-adv-x="649" d="M8 842v116h199v271h139v-271h270v-116h-270v-559q0 -55 10 -88q11 -36 30 -55q18 -18 46 -26q29 -8 57 -8q23 0 61 9q33 8 60 22l6 -121q-32 -13 -76 -21q-38 -7 -87 -7q-41 0 -82 10q-42 10 -80 39q-37 28 -61 78q-23 47 -23 129v598h-199z" />
<glyph unicode="u" horiz-adv-x="1189" d="M176 371v587h139v-530q0 -70 13 -137q12 -63 42 -106q30 -44 80 -68q52 -25 125 -25q54 0 108 23t93 68q43 49 66 117q24 71 24 167v491h140v-747q0 -18 2 -100q2 -61 6 -111h-133q-6 51 -7 86q-2 62 -2 78h-4q-40 -83 -133 -136q-92 -53 -194 -53q-182 0 -274 109 q-91 107 -91 287z" />
<glyph unicode="v" horiz-adv-x="999" d="M33 958h155l312 -811h4l313 811h150l-389 -958h-154z" />
<glyph unicode="w" horiz-adv-x="1527" d="M53 958h150l231 -778h4l258 778h135l263 -778h4l229 778h148l-304 -958h-151l-256 776h-4l-252 -776h-152z" />
<glyph unicode="x" horiz-adv-x="991" d="M33 0l377 496l-355 462h178l263 -364l262 364h168l-348 -456l380 -502h-180l-284 399l-293 -399h-168z" />
<glyph unicode="y" horiz-adv-x="999" d="M33 958h155l326 -808h4l297 808h152l-478 -1206q-44 -112 -109 -177q-67 -67 -192 -67q-58 0 -125 13l15 127q51 -17 102 -17q72 0 113 44q43 46 72 126l77 201z" />
<glyph unicode="z" horiz-adv-x="905" d="M63 0v98l572 744h-543v116h729v-98l-573 -739h594v-121h-779z" />
<glyph unicode="{" horiz-adv-x="614" d="M0 528v123q80 0 121 60q41 61 41 168v364q0 71 18 121q17 47 49 79q29 29 71 43q39 13 83 13h129v-110h-98q-35 0 -61 -16q-23 -15 -36 -40q-11 -22 -16 -55q-4 -27 -4 -59v-365q0 -72 -22 -124q-21 -50 -51 -80q-29 -29 -60 -43q-30 -13 -49 -15v-4q16 -1 49 -16 q31 -14 60 -43q30 -30 51 -79q22 -52 22 -124v-365q0 -32 4 -59q5 -34 16 -56q13 -25 36 -40q24 -15 61 -15h98v-110h-129q-44 0 -83 13q-42 14 -71 43q-32 32 -49 79q-18 50 -18 121v364q0 107 -41 168q-40 59 -121 59z" />
<glyph unicode="|" horiz-adv-x="454" d="M166 -512v2048h123v-2048h-123z" />
<glyph unicode="}" horiz-adv-x="614" d="M102 -209h99q36 0 60 15q23 15 36 40q11 22 16 56q4 27 4 59v365q0 72 22 124q21 49 51 79q28 28 61 43t49 16v4q-19 2 -49 15q-33 15 -61 43q-30 30 -51 80q-22 52 -22 124v365q0 32 -4 59q-5 33 -16 55q-13 25 -36 40q-26 16 -60 16h-99v110h129q44 0 83 -13 q42 -14 71 -43q32 -32 49 -79q19 -52 19 -121v-364q0 -107 41 -168q40 -60 120 -60v-123q-80 0 -120 -59q-41 -61 -41 -168v-364q0 -69 -19 -121q-17 -47 -49 -79q-29 -29 -71 -43q-39 -13 -83 -13h-129v110z" />
<glyph unicode="~" horiz-adv-x="1363" d="M182 569q16 24 50 67q25 32 62 61q35 27 76 45q42 18 91 18q53 0 109 -16q52 -15 116 -56q58 -37 111 -61q52 -23 100 -23q38 0 66 14q33 17 55 37q24 23 44 50q17 24 34 49l86 -82q-19 -30 -48 -67q-24 -30 -63 -61q-34 -27 -77 -45q-42 -18 -91 -18q-29 0 -54 3 q-15 2 -52 12q-30 8 -56 22q-27 14 -65 37q-57 37 -111 61q-47 21 -100 21q-38 0 -66 -14q-32 -16 -55 -36q-26 -23 -43 -48q-8 -12 -33 -52z" />
<glyph unicode="&#xa1;" horiz-adv-x="671" d="M225 883q0 40 31 76q30 34 80 34t80 -34t30 -76q0 -43 -30 -77t-80 -34t-80 34q-31 36 -31 77zM262 -469v1057h148v-1057h-148z" />
<glyph unicode="&#xa2;" d="M180 479q0 99 30 185q31 87 85 152q57 68 135 109t180 52v129h99v-125q93 -5 178 -45q84 -40 151 -119l-110 -84q-29 48 -88 85q-56 35 -131 40v-758q75 5 131 40q59 37 88 85l110 -84q-66 -78 -151 -118q-88 -42 -178 -46v-124h-99v129q-102 11 -180 52q-80 42 -135 108 q-54 64 -85 153q-30 85 -30 184zM328 479q0 -74 19 -135q20 -66 56 -113q35 -47 90 -81q55 -35 117 -46v750q-64 -12 -117 -45t-90 -82q-36 -47 -56 -113q-19 -61 -19 -135z" />
<glyph unicode="&#xa3;" d="M154 0v123h208v563h-196v123h196v190q0 85 22 176q20 84 72 156q50 69 134 113q83 43 207 43q89 0 173 -29q83 -29 144 -94l-96 -104q-41 47 -98 74q-59 28 -129 28q-93 0 -148 -39q-55 -38 -85 -96q-30 -57 -39 -123t-9 -117v-178h344v-123h-344v-563h537v-123h-893z " />
<glyph unicode="&#xa4;" d="M37 98l180 183q-98 116 -98 303q0 91 23 161q24 74 69 134l-174 174l82 80l174 -172q64 48 137 74q79 28 168 28q90 0 166 -27q77 -27 135 -75l172 172l82 -80l-170 -170q49 -64 72 -133q24 -73 24 -166q0 -94 -26 -171q-27 -80 -76 -139l176 -176l-80 -82l-180 179 q-62 -47 -134 -71q-76 -26 -161 -26q-167 0 -297 101l-182 -183zM256 584q0 -74 24 -139t68 -113q45 -50 109 -77q65 -28 141 -28t141 28t108 77q45 51 68 113q25 67 25 139q0 69 -25 136q-24 64 -68 113q-43 47 -108 75t-141 28t-141 -28t-109 -75q-43 -46 -68 -113 q-24 -64 -24 -136z" />
<glyph unicode="&#xa5;" d="M20 1450h183l395 -614l393 614h176l-458 -668h292v-110h-337v-215h337v-111h-337v-346h-140v346h-338v111h338v215h-338v110h297z" />
<glyph unicode="&#xa6;" horiz-adv-x="454" d="M166 -358v716h123v-716h-123zM166 666v716h123v-716h-123z" />
<glyph unicode="&#xa7;" d="M170 -37l135 66q35 -98 110 -138q76 -41 160 -41q33 0 78 10q43 9 77 31q36 22 60 62q23 37 23 98q0 73 -44 120t-110 77l-260 125q-37 16 -75 43q-35 24 -62 56t-42 75t-15 100q0 103 60 172q61 70 153 99q-44 29 -50 34q-31 24 -52 49q-23 27 -40 69q-16 39 -16 93 q0 80 31 144q29 59 83 101q50 39 119 59q68 20 138 20q139 0 223 -56q87 -58 117 -137l-121 -61q-11 23 -28 46q-18 24 -45 42q-30 20 -64 31q-37 12 -84 12q-99 0 -160 -48t-61 -134q0 -49 17 -82q19 -36 45 -61q27 -26 64 -44q35 -18 74 -34l178 -84q86 -41 149 -110 q62 -68 62 -181q0 -101 -53 -171t-129 -98q73 -44 109 -105q37 -62 37 -151q0 -84 -32 -148q-30 -61 -86 -104q-54 -42 -124 -62q-67 -19 -144 -19q-137 0 -246 57q-110 57 -159 178zM348 655q0 -42 14 -70q15 -29 44 -54q25 -21 69 -44q30 -16 94 -43l136 -61q27 7 51 20 q28 16 48 37q19 21 36 54q14 28 14 71q0 45 -15 80t-43 61q-26 24 -64 45q-27 15 -77 35l-125 54q-31 -5 -60 -16q-35 -13 -59 -32q-27 -21 -45 -56q-18 -34 -18 -81z" />
<glyph unicode="&#xa8;" horiz-adv-x="491" d="M-55 1325q0 42 28 73q29 32 76 32t76 -32t29 -73t-29 -73q-28 -31 -76 -31t-76 31t-28 73zM338 1325q0 41 29 73t75 32q47 0 76 -32t29 -73t-29 -73q-28 -31 -76 -31q-47 0 -75 31q-29 32 -29 73z" />
<glyph unicode="&#xa9;" horiz-adv-x="1638" d="M41 723q0 162 61 302q60 138 167 245q105 105 248 165t304 60q160 0 301 -60q143 -61 247 -165q107 -107 167 -245q61 -140 61 -302q0 -160 -61 -300q-60 -138 -167 -245q-103 -103 -247 -164q-139 -59 -301 -59q-164 0 -304 59q-145 61 -248 164q-107 107 -167 245 q-61 140 -61 300zM164 723q0 -137 52 -254q53 -120 141 -208q89 -89 209 -140t255 -51t254 51t208 140t140 208q52 121 52 254t-52 255q-51 120 -140 209q-88 88 -208 141q-117 52 -254 52q-136 0 -255 -52q-121 -53 -209 -141t-141 -209q-52 -119 -52 -255zM377 735 q0 100 35 185q34 83 96 145t146 96q87 35 186 35t189 -43q92 -44 142 -119l-106 -82q-29 45 -89 83q-61 38 -132 38q-76 0 -136 -27q-59 -27 -103 -75q-40 -44 -64 -108q-23 -61 -23 -128q0 -65 22 -129q21 -62 63 -108q44 -49 102 -75q62 -28 135 -28q64 0 129 31 q62 30 112 102l107 -69q-49 -76 -137 -131q-89 -56 -211 -56q-99 0 -186 35q-84 34 -146 96q-62 61 -96 147q-35 87 -35 185z" />
<glyph unicode="&#xaa;" horiz-adv-x="737" d="M82 1047q0 66 37 104q37 39 96 58q62 20 134 26q75 6 151 6v16q0 65 -42 95t-108 30q-48 0 -95 -18q-46 -18 -75 -47l-65 72q45 41 109 63q66 23 136 23q129 0 191 -65q61 -64 61 -161v-252q0 -18 2 -60q1 -25 7 -54h-107q-10 43 -10 84h-4q-68 -99 -201 -99 q-33 0 -75 10q-40 10 -69 29q-32 21 -53 56q-20 33 -20 84zM203 1049q0 -51 38 -71t83 -20q83 0 130 49q46 47 46 121v31h-31q-43 0 -90 -3t-86 -15q-38 -12 -65 -34q-25 -21 -25 -58z" />
<glyph unicode="&#xab;" horiz-adv-x="987" d="M106 492l287 428l96 -68l-235 -360l235 -361l-96 -68zM479 492l287 428l96 -68l-235 -360l235 -361l-96 -68z" />
<glyph unicode="&#xac;" horiz-adv-x="1363" d="M160 713v123h1044v-570h-123v447h-921z" />
<glyph unicode="&#xad;" horiz-adv-x="655" d="M98 438v117h459v-117h-459z" />
<glyph unicode="&#xae;" horiz-adv-x="1228" d="M147 1010q0 97 37 181q36 82 101 147q63 63 148 100q84 37 181 37q98 0 182 -37q86 -37 148 -100q63 -63 100 -147t37 -181q0 -98 -37 -181t-100 -146q-62 -62 -148 -98t-182 -36t-181 36q-86 36 -148 98q-65 65 -101 146q-37 83 -37 181zM221 1010q0 -78 31 -152 q29 -69 84 -126q54 -55 125 -85q74 -31 153 -31q80 0 154 31q71 30 125 85q55 57 84 126q31 74 31 152q0 79 -31 153q-29 70 -84 125t-125 84q-74 31 -154 31q-79 0 -153 -31q-70 -29 -125 -84q-56 -57 -84 -125q-31 -74 -31 -153zM432 750v524h184q35 0 72 -8q33 -7 63 -27 q27 -18 44 -47q16 -28 16 -72q0 -57 -33 -93t-88 -48l141 -229h-114l-123 219h-68v-219h-94zM526 1044h76q38 0 78 16q37 15 37 62q0 43 -34 58q-32 14 -71 14h-86v-150z" />
<glyph unicode="&#xaf;" horiz-adv-x="491" d="M-31 1229v110h553v-110h-553z" />
<glyph unicode="&#xb0;" horiz-adv-x="819" d="M104 1169q0 64 23 122t63 98t98 63t122 23q63 0 121 -23t98 -63t63 -98t23 -122q0 -63 -23 -121t-63 -98t-98 -63t-121 -23q-64 0 -122 23t-98 63t-63 98t-23 121zM203 1169q0 -44 16 -80q17 -39 44 -66t66 -44q36 -16 81 -16q44 0 80 16q39 17 66 44t44 66q16 36 16 80 q0 45 -16 81q-17 39 -44 66t-66 44q-36 16 -80 16q-45 0 -81 -16q-39 -17 -66 -44t-44 -66q-16 -36 -16 -81z" />
<glyph unicode="&#xb1;" horiz-adv-x="1363" d="M160 98v123h1044v-123h-1044zM160 711v123h461v319h122v-319h461v-123h-461v-310h-122v310h-461z" />
<glyph unicode="&#xb2;" horiz-adv-x="757" d="M88 594v117l342 346q32 33 60 77t28 99q0 59 -39 93q-38 34 -98 34q-57 0 -98 -39q-41 -40 -56 -104l-123 18q21 106 97 171q78 67 180 67q49 0 102 -16q48 -15 86 -45q38 -31 59 -75q21 -45 21 -104q0 -47 -13 -83q-15 -41 -34 -70q-23 -35 -46 -59q-34 -36 -52 -54 l-262 -262h411v-111h-565z" />
<glyph unicode="&#xb3;" horiz-adv-x="757" d="M80 778l117 39q21 -60 66 -92q46 -33 106 -33q64 0 113 37q50 38 50 113q0 42 -17 69q-17 28 -45 46q-28 19 -62 26q-37 8 -72 8h-55v105h55q74 0 122 32q50 33 50 111q0 57 -41 92t-100 35q-47 0 -87 -27q-41 -27 -67 -75l-102 53q47 83 114 120q68 38 146 38 q53 0 100 -15q49 -16 83 -44t56 -74q21 -44 21 -101q0 -65 -32 -114q-30 -46 -85 -76q64 -23 103 -78q38 -53 38 -131q0 -66 -23 -113q-24 -49 -63 -82q-38 -32 -91 -49q-51 -16 -109 -16q-97 0 -173 47q-75 47 -116 149z" />
<glyph unicode="&#xb4;" horiz-adv-x="491" d="M121 1155l205 295h186l-270 -295h-121z" />
<glyph unicode="&#xb5;" horiz-adv-x="1138" d="M147 -467v1425h136v-530q0 -178 56 -253q57 -77 204 -77q59 0 114 25q53 24 93 72q38 46 61 115q23 71 23 157v491h135v-747q0 -53 3 -106q4 -70 7 -105h-145v156h-5q-22 -36 -57 -70q-34 -33 -78 -57t-91 -39q-48 -15 -95 -15q-141 0 -225 60v-502h-136z" />
<glyph unicode="&#xb6;" horiz-adv-x="1228" d="M98 1028q0 200 125 311t342 111h486v-1708h-136v1597h-253v-1597h-136v905q-94 0 -173 30q-77 29 -135 81q-55 50 -88 121q-32 70 -32 149z" />
<glyph unicode="&#xb7;" horiz-adv-x="532" d="M156 643q0 43 30 77t80 34t80 -34q31 -36 31 -77t-31 -77q-30 -34 -80 -34t-80 34t-30 77z" />
<glyph unicode="&#xb8;" horiz-adv-x="491" d="M29 -430l32 74q36 -17 72 -23q37 -6 76 -6q19 0 39 4q26 5 43 15q21 12 35 29t14 42q0 41 -30 61q-29 19 -81 19q-46 0 -88 -16l-37 30l127 201h88l-96 -154q32 9 72 9q63 0 115 -37q53 -38 53 -111q0 -51 -23 -86q-22 -34 -57 -55q-36 -22 -78 -29q-46 -8 -84 -8 q-44 0 -95 10q-55 11 -97 31z" />
<glyph unicode="&#xb9;" horiz-adv-x="757" d="M141 1262l230 188h104v-864h-125v708l-131 -116z" />
<glyph unicode="&#xba;" horiz-adv-x="737" d="M57 1171q0 67 24 123t64 96q38 38 99 62q58 23 125 23t125 -23q59 -23 98 -62q40 -40 64 -96t24 -123q0 -64 -24 -121t-64 -97q-39 -39 -98 -62q-58 -23 -125 -23t-125 23q-61 24 -99 62q-40 40 -64 97t-24 121zM176 1171q0 -41 12 -78t37 -67q23 -27 61 -46 q34 -17 83 -17t83 17q37 18 60 46q25 30 37 67t12 78t-12 79q-12 37 -37 67q-23 28 -60 46q-34 17 -83 17t-83 -17q-38 -19 -61 -46q-25 -30 -37 -67q-12 -38 -12 -79z" />
<glyph unicode="&#xbb;" horiz-adv-x="987" d="M125 131l235 361l-235 360l96 68l287 -428l-287 -429zM498 131l235 361l-235 360l96 68l287 -428l-287 -429z" />
<glyph unicode="&#xbc;" horiz-adv-x="1720" d="M141 1262l230 188h104v-864h-125v708l-131 -116zM338 -8l924 1521l104 -55l-922 -1521zM983 201v106l358 557h140v-553h123v-110h-123v-201h-113v201h-385zM1112 311h256v385h-6z" />
<glyph unicode="&#xbd;" horiz-adv-x="1720" d="M141 1262l230 188h104v-864h-125v708l-131 -116zM338 -8l924 1521l104 -55l-922 -1521zM1044 0v117l342 346q35 37 61 77q28 44 28 99q0 59 -39 93q-38 34 -99 34q-57 0 -98 -39q-40 -39 -55 -104l-123 18q21 107 96 171q78 67 180 67q50 0 103 -16q48 -15 86 -45 q37 -29 58 -75q22 -47 22 -104q0 -44 -14 -83q-16 -45 -33 -70q-21 -31 -47 -59q-34 -36 -52 -54l-262 -262h412v-111h-566z" />
<glyph unicode="&#xbe;" horiz-adv-x="1720" d="M80 778l117 39q21 -60 66 -92q46 -33 106 -33q64 0 113 37q50 38 50 113q0 42 -17 69q-17 28 -45 46q-28 19 -62 26q-37 8 -72 8h-55v105h55q74 0 122 32q50 33 50 111q0 57 -41 92t-100 35q-47 0 -87 -27q-41 -27 -67 -75l-102 53q47 83 114 120q68 38 146 38 q53 0 100 -15q49 -16 83 -44t56 -74q21 -44 21 -101q0 -65 -32 -114q-30 -46 -85 -76q64 -23 103 -78q38 -53 38 -131q0 -66 -23 -113q-24 -49 -63 -82q-38 -32 -91 -49q-51 -16 -109 -16q-97 0 -173 47q-75 47 -116 149zM338 -8l924 1521l104 -55l-922 -1521zM983 201v106 l358 557h140v-553h123v-110h-123v-201h-113v201h-385zM1112 311h256v385h-6z" />
<glyph unicode="&#xbf;" horiz-adv-x="987" d="M94 -133q0 65 15 115q16 53 39 88t61 70q36 33 74 65q34 27 72 63q29 27 48 61q20 36 27 70q8 42 8 95v94h144v-123q0 -58 -14 -105q-13 -44 -37 -81q-27 -42 -53 -68q-30 -30 -60 -57l-58 -52q-49 -39 -85 -94q-33 -50 -33 -133q0 -59 20 -102q22 -47 55 -76 q35 -31 81 -47q48 -17 100 -17q109 0 179 68q69 67 85 172l139 -25q-30 -158 -140 -250t-269 -92q-83 0 -155 24q-75 25 -126 70q-55 49 -85 113q-32 69 -32 154zM385 883q0 40 31 76q30 34 80 34q49 0 79 -34q31 -36 31 -76q0 -41 -31 -77q-30 -34 -79 -34q-50 0 -80 34 q-31 36 -31 77z" />
<glyph unicode="&#xc0;" horiz-adv-x="1433" d="M20 0l627 1450h144l622 -1450h-164l-159 381h-750l-158 -381h-162zM393 1860h187l204 -295h-120zM395 516h639l-319 770z" />
<glyph unicode="&#xc1;" horiz-adv-x="1433" d="M20 0l627 1450h144l622 -1450h-164l-159 381h-750l-158 -381h-162zM395 516h639l-319 770zM655 1565l205 295h187l-271 -295h-121z" />
<glyph unicode="&#xc2;" horiz-adv-x="1433" d="M20 0l627 1450h144l622 -1450h-164l-159 381h-750l-158 -381h-162zM395 516h639l-319 770zM410 1565l223 295h164l223 -295h-135l-170 221l-170 -221h-135z" />
<glyph unicode="&#xc3;" horiz-adv-x="1433" d="M20 0l627 1450h144l622 -1450h-164l-159 381h-750l-158 -381h-162zM385 1589q6 42 19 78q14 39 36 69q22 29 55 48q31 18 78 18q40 0 75 -14q38 -15 75 -33q11 -5 35.5 -16t36.5 -16q35 -15 65 -15q48 0 69 32q22 33 32 70h88q-6 -38 -20 -78q-14 -38 -36 -68 q-23 -30 -55 -48q-35 -19 -78 -19q-37 0 -76 15q-37 14 -73 33q-18 9 -70 32q-35 15 -68 15q-47 0 -68 -32q-22 -32 -32 -71h-88zM395 516h639l-319 770z" />
<glyph unicode="&#xc4;" horiz-adv-x="1433" d="M20 0l627 1450h144l622 -1450h-164l-159 381h-750l-158 -381h-162zM395 516h639l-319 770zM418 1735q0 41 28 72q29 32 76 32t76 -32t29 -72q0 -41 -29 -73t-76 -32t-76 32q-28 31 -28 73zM811 1735q0 40 29 72t75 32q47 0 76 -32t29 -72q0 -41 -29 -73t-76 -32 q-46 0 -75 32t-29 73z" />
<glyph unicode="&#xc5;" horiz-adv-x="1433" d="M20 0l627 1450h144l622 -1450h-164l-159 381h-750l-158 -381h-162zM395 516h639l-319 770zM520 1741q0 39 16 77q14 34 43 61q28 26 62 41t76 15q39 0 75 -15q35 -15 63 -41q29 -27 43 -61q15 -36 15 -77t-15 -77q-14 -33 -43 -62q-25 -25 -63 -41q-36 -15 -75 -15 q-41 0 -76 15q-37 16 -62 41q-29 29 -43 62q-16 38 -16 77zM594 1741q0 -51 36 -86q37 -35 87 -35t87 35q36 35 36 86t-36 86q-37 35 -87 35t-87 -35q-36 -35 -36 -86z" />
<glyph unicode="&#xc6;" horiz-adv-x="2027" d="M23 0l944 1450h925v-131h-682v-500h633v-129h-633v-559h707v-131h-854v406h-610l-263 -406h-167zM528 535h535v784h-29z" />
<glyph unicode="&#xc7;" horiz-adv-x="1474" d="M115 725q0 165 57 305q57 139 159 241q101 101 239 158q140 58 300 58q78 0 157 -17t144 -46q71 -31 123 -71q51 -39 92 -96l-122 -90q-23 35 -61 70q-36 33 -89 61q-48 25 -112 43q-62 17 -130 17q-141 0 -252 -51t-190 -139t-119 -201q-41 -115 -41 -242 q0 -128 42 -242t120 -201q79 -88 190 -139t250 -51q126 0 238 51q111 50 188 164l115 -74q-37 -55 -89 -104q-51 -48 -121 -86q-68 -37 -151 -58q-86 -22 -182 -22l-71 -117q32 9 71 9q63 0 115 -37q53 -38 53 -111q0 -52 -22 -86q-21 -33 -58 -55q-36 -22 -77 -29 q-46 -8 -84 -8q-45 0 -96 10q-55 11 -97 31l33 74q36 -17 72 -23q37 -6 75 -6q19 0 39 4q26 5 43 15q21 12 35 29t14 42q0 42 -29 61t-81 19q-46 0 -88 -16l-37 30l106 168q-149 15 -271 77q-125 63 -213 162q-89 99 -138 232q-49 132 -49 287z" />
<glyph unicode="&#xc8;" horiz-adv-x="1212" d="M193 0v1450h899v-131h-752v-500h702v-129h-702v-559h776v-131h-923zM377 1860h186l205 -295h-121z" />
<glyph unicode="&#xc9;" horiz-adv-x="1212" d="M193 0v1450h899v-131h-752v-500h702v-129h-702v-559h776v-131h-923zM543 1565l205 295h186l-270 -295h-121z" />
<glyph unicode="&#xca;" horiz-adv-x="1212" d="M193 0v1450h899v-131h-752v-500h702v-129h-702v-559h776v-131h-923zM342 1565l223 295h164l223 -295h-135l-170 221l-170 -221h-135z" />
<glyph unicode="&#xcb;" horiz-adv-x="1212" d="M193 0v1450h899v-131h-752v-500h702v-129h-702v-559h776v-131h-923zM346 1735q0 40 29 72t76 32q46 0 75 -32t29 -72q0 -41 -29 -73t-75 -32q-47 0 -76 32t-29 73zM739 1735q0 40 29 72t76 32t76 -32q28 -31 28 -72q0 -42 -28 -73q-29 -32 -76 -32t-76 32t-29 73z" />
<glyph unicode="&#xcc;" horiz-adv-x="532" d="M-53 1860h186l205 -295h-121zM193 0v1450h147v-1450h-147z" />
<glyph unicode="&#xcd;" horiz-adv-x="532" d="M193 0v1450h147v-1450h-147zM193 1565l204 295h187l-271 -295h-120z" />
<glyph unicode="&#xce;" horiz-adv-x="532" d="M-39 1565l223 295h164l223 -295h-135l-170 221l-170 -221h-135zM193 0v1450h147v-1450h-147z" />
<glyph unicode="&#xcf;" horiz-adv-x="532" d="M-35 1735q0 40 29 72t76 32q46 0 75 -32t29 -72q0 -41 -29 -73t-75 -32q-47 0 -76 32t-29 73zM193 0v1450h147v-1450h-147zM358 1735q0 40 29 72t76 32t76 -32q28 -31 28 -72q0 -42 -28 -73q-29 -32 -76 -32t-76 32t-29 73z" />
<glyph unicode="&#xd0;" horiz-adv-x="1550" d="M27 711v110h149v629h481q135 0 272 -45t246 -136t177 -228q67 -135 67 -316q0 -183 -67 -317q-68 -136 -177 -227t-246 -136t-272 -45h-481v711h-149zM324 135h286q165 0 288 50q121 49 203 133q80 82 120 189q39 105 39 218t-39 218q-40 107 -120 189q-82 84 -203 133 q-123 50 -288 50h-286v-494h528v-110h-528v-576z" />
<glyph unicode="&#xd1;" horiz-adv-x="1564" d="M193 0v1450h184l844 -1235h4v1235h147v-1450h-184l-844 1247h-4v-1247h-147zM457 1589q6 42 19 78q14 39 36 69t54 48q31 18 79 18q40 0 75 -14q38 -15 75 -33q12 -5 35.5 -16t35.5 -16q35 -15 66 -15q47 0 68 32q22 33 32 70h88q-6 -43 -19 -78q-14 -38 -36 -68 q-23 -30 -55 -48q-35 -19 -78 -19q-37 0 -76 15q-41 16 -74 33q-23 12 -69 32q-35 15 -68 15q-47 0 -68 -32q-22 -32 -32 -71h-88z" />
<glyph unicode="&#xd2;" horiz-adv-x="1740" d="M115 725q0 165 57 305q57 139 159 241q103 103 239 159q138 57 300 57t300 -57t240 -159t159 -241t57 -305q0 -165 -57 -305q-57 -139 -159 -241t-240 -159t-300 -57t-300 57q-136 56 -239 159q-102 102 -159 241q-57 140 -57 305zM270 725q0 -127 41 -242 q40 -114 119 -200q80 -87 190 -138q111 -51 250 -51q140 0 251 51q110 51 190 138q79 86 119 200q40 113 40 242t-40 242t-119 201t-190 139t-251 51q-139 0 -250 -51t-190 -139t-119 -201q-41 -115 -41 -242zM629 1860h186l205 -295h-121z" />
<glyph unicode="&#xd3;" horiz-adv-x="1740" d="M115 725q0 165 57 305q57 139 159 241q103 103 239 159q138 57 300 57t300 -57t240 -159t159 -241t57 -305q0 -165 -57 -305q-57 -139 -159 -241t-240 -159t-300 -57t-300 57q-136 56 -239 159q-102 102 -159 241q-57 140 -57 305zM270 725q0 -127 41 -242 q40 -114 119 -200q80 -87 190 -138q111 -51 250 -51q140 0 251 51q110 51 190 138q79 86 119 200q40 113 40 242t-40 242t-119 201t-190 139t-251 51q-139 0 -250 -51t-190 -139t-119 -201q-41 -115 -41 -242zM752 1565l204 295h187l-271 -295h-120z" />
<glyph unicode="&#xd4;" horiz-adv-x="1740" d="M115 725q0 165 57 305q57 139 159 241q103 103 239 159q138 57 300 57t300 -57t240 -159t159 -241t57 -305q0 -165 -57 -305q-57 -139 -159 -241t-240 -159t-300 -57t-300 57q-136 56 -239 159q-102 102 -159 241q-57 140 -57 305zM270 725q0 -127 41 -242 q40 -114 119 -200q80 -87 190 -138q111 -51 250 -51q140 0 251 51q110 51 190 138q79 86 119 200q40 113 40 242t-40 242t-119 201t-190 139t-251 51q-139 0 -250 -51t-190 -139t-119 -201q-41 -115 -41 -242zM565 1565l223 295h164l224 -295h-136l-170 221l-170 -221h-135z " />
<glyph unicode="&#xd5;" horiz-adv-x="1740" d="M115 725q0 165 57 305q57 139 159 241q103 103 239 159q138 57 300 57t300 -57t240 -159t159 -241t57 -305q0 -165 -57 -305q-57 -139 -159 -241t-240 -159t-300 -57t-300 57q-136 56 -239 159q-102 102 -159 241q-57 140 -57 305zM270 725q0 -127 41 -242 q40 -114 119 -200q80 -87 190 -138q111 -51 250 -51q140 0 251 51q110 51 190 138q79 86 119 200q40 113 40 242t-40 242t-119 201t-190 139t-251 51q-139 0 -250 -51t-190 -139t-119 -201q-41 -115 -41 -242zM539 1589q6 42 19 78q14 39 36 69t54 48q31 18 79 18 q40 0 75 -14q38 -15 75 -33q12 -5 35.5 -16t35.5 -16q34 -15 66 -15q47 0 68 32q22 33 32 70h88q-6 -43 -19 -78q-14 -38 -36 -68q-23 -30 -55 -48q-35 -19 -78 -19q-37 0 -76 15q-41 16 -74 33q-23 12 -69 32q-34 15 -68 15q-48 0 -69 -32q-20 -30 -31 -71h-88z" />
<glyph unicode="&#xd6;" horiz-adv-x="1740" d="M115 725q0 165 57 305q57 139 159 241q103 103 239 159q138 57 300 57t300 -57t240 -159t159 -241t57 -305q0 -165 -57 -305q-57 -139 -159 -241t-240 -159t-300 -57t-300 57q-136 56 -239 159q-102 102 -159 241q-57 140 -57 305zM270 725q0 -127 41 -242 q40 -114 119 -200q80 -87 190 -138q111 -51 250 -51q140 0 251 51q110 51 190 138q79 86 119 200q40 113 40 242t-40 242t-119 201t-190 139t-251 51q-139 0 -250 -51t-190 -139t-119 -201q-41 -115 -41 -242zM569 1735q0 40 29 72t76 32t76 -32q28 -31 28 -72 q0 -42 -28 -73q-29 -32 -76 -32t-76 32t-29 73zM963 1735q0 41 28 72q29 32 76 32t76 -32q28 -31 28 -72q0 -42 -28 -73q-29 -32 -76 -32t-76 32q-28 31 -28 73z" />
<glyph unicode="&#xd7;" horiz-adv-x="1363" d="M270 295l326 326l-326 327l86 86l326 -325l324 325l88 -86l-326 -327l326 -326l-88 -88l-324 325l-326 -325z" />
<glyph unicode="&#xd8;" horiz-adv-x="1740" d="M115 725q0 165 57 305q57 139 159 241q103 103 239 159q138 57 300 57q144 0 264 -43q121 -43 220 -123l155 166l76 -70l-155 -168q94 -100 145 -233q51 -134 51 -291q0 -165 -57 -305q-57 -139 -159 -241t-240 -159t-300 -57q-140 0 -264 44q-122 43 -219 122l-156 -166 l-75 70l155 168q-94 100 -145 233q-51 134 -51 291zM270 725q0 -119 36 -227q36 -107 106 -191l850 912q-69 63 -171 102q-98 37 -221 37q-142 0 -253 -51q-110 -51 -188 -139q-78 -89 -118 -201q-41 -115 -41 -242zM483 231q74 -64 171 -101q94 -36 216 -36q142 0 253 51 t189 138t118 200t40 242q0 119 -34 225q-34 108 -103 193z" />
<glyph unicode="&#xd9;" horiz-adv-x="1454" d="M184 541v909h148v-893q0 -92 20 -171q21 -84 67 -147q47 -65 122 -105q76 -40 186 -40t186 40q75 40 122 105q46 63 67 147q20 79 20 171v893h148v-909q0 -90 -24 -192t-85 -187q-62 -86 -167 -143q-103 -56 -267 -56q-165 0 -268 56q-104 56 -166 143q-61 85 -85 187 t-24 192zM459 1860h186l205 -295h-121z" />
<glyph unicode="&#xda;" horiz-adv-x="1454" d="M184 541v909h148v-893q0 -92 20 -171q21 -84 67 -147q47 -65 122 -105q76 -40 186 -40t186 40q75 40 122 105q46 63 67 147q20 79 20 171v893h148v-909q0 -90 -24 -192t-85 -187q-62 -86 -167 -143q-103 -56 -267 -56q-165 0 -268 56q-104 56 -166 143q-61 85 -85 187 t-24 192zM627 1565l204 295h187l-270 -295h-121z" />
<glyph unicode="&#xdb;" horiz-adv-x="1454" d="M184 541v909h148v-893q0 -92 20 -171q21 -84 67 -147q47 -65 122 -105q76 -40 186 -40t186 40q75 40 122 105q46 63 67 147q20 79 20 171v893h148v-909q0 -90 -24 -192t-85 -187q-62 -86 -167 -143q-103 -56 -267 -56q-165 0 -268 56q-104 56 -166 143q-61 85 -85 187 t-24 192zM422 1565l223 295h164l223 -295h-135l-170 221l-170 -221h-135z" />
<glyph unicode="&#xdc;" horiz-adv-x="1454" d="M184 541v909h148v-893q0 -92 20 -171q21 -84 67 -147q47 -65 122 -105q76 -40 186 -40t186 40q75 40 122 105q46 63 67 147q20 79 20 171v893h148v-909q0 -90 -24 -192t-85 -187q-62 -86 -167 -143q-103 -56 -267 -56q-165 0 -268 56q-104 56 -166 143q-61 85 -85 187 t-24 192zM428 1735q0 40 29 72t75 32q47 0 76 -32t29 -72q0 -41 -29 -73t-76 -32q-46 0 -75 32t-29 73zM821 1735q0 40 29 72t76 32q46 0 75 -32t29 -72q0 -41 -29 -73t-75 -32q-47 0 -76 32t-29 73z" />
<glyph unicode="&#xdd;" horiz-adv-x="1232" d="M0 1450h184l437 -702l440 702h172l-543 -825v-625h-147v625zM563 1565l205 295h186l-270 -295h-121z" />
<glyph unicode="&#xde;" d="M193 0v1450h147v-317h262q111 0 201 -24q89 -24 154 -72q65 -49 100 -121q35 -73 35 -171q0 -99 -36 -171q-36 -71 -101 -120q-67 -50 -155 -73q-95 -25 -202 -25h-258v-356h-147zM340 485h238q174 0 264 66t90 194q0 136 -93 196t-261 60h-238v-516z" />
<glyph unicode="&#xdf;" horiz-adv-x="1222" d="M180 0v1114q0 77 20 162q19 82 68 147q50 66 132 108t210 42q76 0 149 -25q72 -25 125 -70q54 -46 87 -114t33 -154q0 -239 -238 -325v-4q80 -11 142 -44q66 -35 111 -89q47 -56 72 -129q25 -72 25 -162q0 -108 -35 -198q-35 -89 -99 -152q-65 -64 -155 -98 q-89 -34 -202 -34q-15 0 -57 4q-38 4 -56 7v116q21 -4 48 -6q36 -2 50 -2q163 0 262 96t99 269q0 177 -109 268q-108 90 -287 90h-18v123h16q125 0 207 63t82 195q0 65 -20 109q-21 47 -57 78q-38 33 -83 49t-98 16q-90 0 -145 -33q-56 -33 -86 -83q-30 -49 -42 -110 q-12 -60 -12 -114v-1110h-139z" />
<glyph unicode="&#xe0;" horiz-adv-x="1093" d="M113 266q0 112 56 175q59 67 150 97q96 32 217 41q122 9 252 9v30q0 126 -65 187t-191 61q-86 0 -159 -30t-125 -82l-78 92q59 59 157 98q97 39 220 39q77 0 145 -21q67 -21 119 -65t80 -109q29 -67 29 -153v-420q0 -62 4 -115q4 -59 12 -100h-125q-4 25 -10 76 q-4 36 -4 80h-4q-67 -97 -149 -139t-200 -42q-51 0 -113 16q-58 15 -107 50t-80 90t-31 135zM256 272q0 -52 19 -86q20 -35 53 -56q36 -23 72 -31q40 -9 81 -9q73 0 131 26q59 26 97 69q36 41 59 102q20 54 20 121v71h-40q-93 0 -174 -7q-84 -7 -157 -29q-70 -21 -116 -62 q-45 -41 -45 -109zM295 1450h186l205 -295h-121z" />
<glyph unicode="&#xe1;" horiz-adv-x="1093" d="M113 266q0 112 56 175q59 67 150 97q96 32 217 41q122 9 252 9v30q0 126 -65 187t-191 61q-86 0 -159 -30t-125 -82l-78 92q59 59 157 98q97 39 220 39q77 0 145 -21q67 -21 119 -65t80 -109q29 -67 29 -153v-420q0 -62 4 -115q4 -59 12 -100h-125q-4 25 -10 76 q-4 36 -4 80h-4q-67 -97 -149 -139t-200 -42q-51 0 -113 16q-58 15 -107 50t-80 90t-31 135zM256 272q0 -52 19 -86q20 -35 53 -56q36 -23 72 -31q40 -9 81 -9q73 0 131 26q59 26 97 69q36 41 59 102q20 54 20 121v71h-40q-93 0 -174 -7q-84 -7 -157 -29q-70 -21 -116 -62 q-45 -41 -45 -109zM440 1155l205 295h186l-270 -295h-121z" />
<glyph unicode="&#xe2;" horiz-adv-x="1093" d="M113 266q0 112 56 175q59 67 150 97q96 32 217 41q122 9 252 9v30q0 126 -65 187t-191 61q-86 0 -159 -30t-125 -82l-78 92q59 59 157 98q97 39 220 39q77 0 145 -21q67 -21 119 -65t80 -109q29 -67 29 -153v-420q0 -62 4 -115q4 -59 12 -100h-125q-4 25 -10 76 q-4 36 -4 80h-4q-67 -97 -149 -139t-200 -42q-51 0 -113 16q-58 15 -107 50t-80 90t-31 135zM246 1155l223 295h164l223 -295h-135l-170 221l-170 -221h-135zM256 272q0 -52 19 -86q20 -35 53 -56q36 -23 72 -31q40 -9 81 -9q73 0 131 26q59 26 97 69q36 41 59 102 q20 54 20 121v71h-40q-93 0 -174 -7q-84 -7 -157 -29q-70 -21 -116 -62q-45 -41 -45 -109z" />
<glyph unicode="&#xe3;" horiz-adv-x="1093" d="M113 266q0 112 56 175q59 67 150 97q96 32 217 41q122 9 252 9v30q0 126 -65 187t-191 61q-86 0 -159 -30t-125 -82l-78 92q59 59 157 98q97 39 220 39q77 0 145 -21q67 -21 119 -65t80 -109q29 -67 29 -153v-420q0 -62 4 -115q4 -59 12 -100h-125q-4 25 -10 76 q-4 36 -4 80h-4q-67 -97 -149 -139t-200 -42q-51 0 -113 16q-58 15 -107 50t-80 90t-31 135zM211 1180q6 40 19 77q14 39 36 69q22 29 55 48t78 19q37 0 75 -15q50 -20 75 -32q11 -5 35.5 -16t36.5 -16q37 -16 65 -16q48 0 69 32q20 30 31 71h88q-7 -45 -19 -79 q-14 -38 -36 -68q-23 -30 -55 -48q-33 -18 -78 -18q-40 0 -76 14q-37 14 -73 33q-30 15 -70 33q-32 14 -68 14q-47 0 -68 -32q-22 -33 -32 -70h-88zM256 272q0 -52 19 -86q20 -35 53 -56q36 -23 72 -31q40 -9 81 -9q73 0 131 26q59 26 97 69q36 41 59 102q20 54 20 121v71 h-40q-93 0 -174 -7q-84 -7 -157 -29q-70 -21 -116 -62q-45 -41 -45 -109z" />
<glyph unicode="&#xe4;" horiz-adv-x="1093" d="M113 266q0 112 56 175q59 67 150 97q96 32 217 41q122 9 252 9v30q0 126 -65 187t-191 61q-86 0 -159 -30t-125 -82l-78 92q59 59 157 98q97 39 220 39q77 0 145 -21q67 -21 119 -65t80 -109q29 -67 29 -153v-420q0 -62 4 -115q4 -59 12 -100h-125q-4 25 -10 76 q-4 36 -4 80h-4q-67 -97 -149 -139t-200 -42q-51 0 -113 16q-58 15 -107 50t-80 90t-31 135zM244 1325q0 42 28 73q29 32 76 32t76 -32t29 -73t-29 -73q-28 -31 -76 -31t-76 31t-28 73zM256 272q0 -52 19 -86q20 -35 53 -56q36 -23 72 -31q40 -9 81 -9q73 0 131 26 q59 26 97 69q36 41 59 102q20 54 20 121v71h-40q-93 0 -174 -7q-84 -7 -157 -29q-70 -21 -116 -62q-45 -41 -45 -109zM637 1325q0 41 29 73t75 32q47 0 76 -32t29 -73t-29 -73q-28 -31 -76 -31q-47 0 -75 31q-29 32 -29 73z" />
<glyph unicode="&#xe5;" horiz-adv-x="1093" d="M113 266q0 112 56 175q59 67 150 97q96 32 217 41q122 9 252 9v30q0 126 -65 187t-191 61q-86 0 -159 -30t-125 -82l-78 92q59 59 157 98q97 39 220 39q77 0 145 -21q67 -21 119 -65t80 -109q29 -67 29 -153v-420q0 -62 4 -115q4 -59 12 -100h-125q-4 25 -10 76 q-4 36 -4 80h-4q-67 -97 -149 -139t-200 -42q-51 0 -113 16q-58 15 -107 50t-80 90t-31 135zM256 272q0 -52 19 -86q20 -35 53 -56q36 -23 72 -31q40 -9 81 -9q73 0 131 26q59 26 97 69q36 41 59 102q20 54 20 121v71h-40q-93 0 -174 -7q-84 -7 -157 -29q-70 -21 -116 -62 q-45 -41 -45 -109zM346 1331q0 41 15 77q14 34 43 61q27 25 63 41q37 16 76 16q36 0 74 -16q37 -15 64 -41q29 -27 43 -61q15 -36 15 -77t-15 -77q-14 -33 -43 -62q-25 -25 -64 -41q-34 -14 -74 -14q-44 0 -76 14q-39 17 -63 41q-29 29 -43 62q-15 36 -15 77zM420 1331 q0 -51 36 -86q37 -35 87 -35t87 35q36 35 36 86t-36 86q-37 35 -87 35t-87 -35q-36 -35 -36 -86z" />
<glyph unicode="&#xe6;" horiz-adv-x="1781" d="M115 256q0 102 57 162q55 58 151 89q95 31 213 38q128 8 242 8v31q0 123 -60 203q-60 79 -186 79q-86 0 -162 -30q-75 -29 -132 -82l-80 90q59 57 167 99q104 40 228 40q116 0 198 -52t117 -149q58 92 153 147q95 54 210 54q104 0 188 -38q81 -37 137 -102t83 -151 q28 -89 28 -184v-35q0 -11 -2 -31h-758q1 -69 28 -136q25 -64 71 -111q48 -49 105 -75q62 -28 130 -28q103 0 179 50q75 49 114 116l100 -80q-84 -110 -180 -155q-102 -48 -213 -48q-135 0 -234 60q-102 62 -147 164q-29 -66 -70 -109q-42 -43 -95 -69q-50 -24 -111 -35 q-63 -11 -123 -11q-57 0 -124 16q-62 15 -112 48t-80 86t-30 131zM258 258q0 -49 18 -82q17 -31 51 -52t72 -28q43 -8 86 -8q149 0 221 78t72 207v69h-41q-82 0 -179 -5q-86 -4 -154 -23q-65 -18 -106 -56q-40 -37 -40 -100zM913 553h613q0 137 -78 225t-217 88 q-64 0 -120 -25q-52 -23 -99 -70q-43 -43 -70 -100q-28 -58 -29 -118z" />
<glyph unicode="&#xe7;" horiz-adv-x="1024" d="M115 479q0 111 37 201q39 94 103 160q66 67 161 105q96 38 211 38q96 0 195 -42q100 -43 161 -124l-109 -78q-34 54 -101 91q-66 36 -144 36q-87 0 -152 -29q-69 -31 -116 -82q-47 -52 -73 -123q-26 -72 -26 -153t26 -151t72 -122q45 -51 115 -82q67 -30 152 -30 q91 0 155 35q65 36 105 90l104 -78q-60 -74 -145 -117q-88 -45 -207 -49l-80 -129q32 9 72 9q62 0 114 -37q54 -39 54 -111q0 -51 -23 -86q-22 -34 -57 -55q-36 -22 -78 -29q-46 -8 -84 -8q-44 0 -95 10q-55 11 -97 31l32 74q36 -17 72 -23q38 -6 76 -6q19 0 39 4 q26 5 43 15q21 12 35 29t14 42q0 41 -30 61q-29 19 -81 19q-46 0 -88 -16l-37 30l113 181q-100 12 -181 54q-84 44 -139 107q-58 68 -88 152q-30 85 -30 186z" />
<glyph unicode="&#xe8;" horiz-adv-x="1171" d="M115 479q0 111 37 201q39 96 102 160q66 68 154 105q90 38 190 38q112 0 199 -38q86 -38 143 -102q56 -64 87 -151q30 -85 30 -184v-31q0 -11 -2 -35h-795q1 -71 29 -135q28 -65 73 -110q48 -48 111 -75q65 -28 137 -28q108 0 188 50q79 49 120 116l104 -82 q-86 -109 -189 -155q-107 -48 -223 -48q-104 0 -197 38q-89 36 -157 106q-64 66 -103 160q-38 93 -38 200zM262 553h653q-6 136 -87 224q-81 89 -230 89q-70 0 -129 -25q-56 -24 -104 -70q-45 -44 -72 -100q-26 -56 -31 -118zM307 1450h187l204 -295h-120z" />
<glyph unicode="&#xe9;" horiz-adv-x="1171" d="M115 479q0 111 37 201q39 96 102 160q66 68 154 105q90 38 190 38q112 0 199 -38q86 -38 143 -102q56 -64 87 -151q30 -85 30 -184v-31q0 -11 -2 -35h-795q1 -71 29 -135q28 -65 73 -110q48 -48 111 -75q65 -28 137 -28q108 0 188 50q79 49 120 116l104 -82 q-86 -109 -189 -155q-107 -48 -223 -48q-104 0 -197 38q-89 36 -157 106q-64 66 -103 160q-38 93 -38 200zM262 553h653q-6 136 -87 224q-81 89 -230 89q-70 0 -129 -25q-56 -24 -104 -70q-45 -44 -72 -100q-26 -56 -31 -118zM514 1155l205 295h186l-270 -295h-121z" />
<glyph unicode="&#xea;" horiz-adv-x="1171" d="M115 479q0 111 37 201q39 96 102 160q66 68 154 105q90 38 190 38q112 0 199 -38q86 -38 143 -102q56 -64 87 -151q30 -85 30 -184v-31q0 -11 -2 -35h-795q1 -71 29 -135q28 -65 73 -110q48 -48 111 -75q65 -28 137 -28q108 0 188 50q79 49 120 116l104 -82 q-86 -109 -189 -155q-107 -48 -223 -48q-104 0 -197 38q-89 36 -157 106q-64 66 -103 160q-38 93 -38 200zM262 553h653q-6 136 -87 224q-81 89 -230 89q-70 0 -129 -25q-56 -24 -104 -70q-45 -44 -72 -100q-26 -56 -31 -118zM307 1155l223 295h164l224 -295h-136l-170 221 l-170 -221h-135z" />
<glyph unicode="&#xeb;" horiz-adv-x="1171" d="M115 479q0 111 37 201q39 96 102 160q66 68 154 105q90 38 190 38q112 0 199 -38q86 -38 143 -102q56 -64 87 -151q30 -85 30 -184v-31q0 -11 -2 -35h-795q1 -71 29 -135q28 -65 73 -110q48 -48 111 -75q65 -28 137 -28q108 0 188 50q79 49 120 116l104 -82 q-86 -109 -189 -155q-107 -48 -223 -48q-104 0 -197 38q-89 36 -157 106q-64 66 -103 160q-38 93 -38 200zM262 553h653q-6 136 -87 224q-81 89 -230 89q-70 0 -129 -25q-56 -24 -104 -70q-45 -44 -72 -100q-26 -56 -31 -118zM311 1325q0 41 29 73t76 32t76 -32 q28 -31 28 -73t-28 -73t-76 -31t-76 31q-29 32 -29 73zM705 1325q0 42 28 73q29 32 76 32t76 -32q28 -31 28 -73t-28 -73t-76 -31t-76 31t-28 73z" />
<glyph unicode="&#xec;" horiz-adv-x="512" d="M-68 1450h187l205 -295h-121zM186 0v958h140v-958h-140z" />
<glyph unicode="&#xed;" horiz-adv-x="512" d="M186 0v958h140v-958h-140zM186 1155l205 295h187l-271 -295h-121z" />
<glyph unicode="&#xee;" horiz-adv-x="512" d="M-45 1155l223 295h164l223 -295h-135l-170 221l-170 -221h-135zM186 0v958h140v-958h-140z" />
<glyph unicode="&#xef;" horiz-adv-x="512" d="M-43 1325q0 41 29 73t75 32q47 0 76 -32t29 -73t-29 -73q-28 -31 -76 -31q-47 0 -75 31q-29 32 -29 73zM186 0v958h140v-958h-140zM350 1325q0 41 29 73t76 32q46 0 75 -32t29 -73t-29 -73q-28 -31 -75 -31q-48 0 -76 31q-29 32 -29 73z" />
<glyph unicode="&#xf0;" horiz-adv-x="1251" d="M98 479q0 108 38 201q38 92 106 160t160 105q94 38 204 38q89 0 162 -29q71 -28 145 -90l5 4q-54 115 -139 227q-82 109 -181 193l-229 -117l-74 74l225 115q-49 48 -105 88q-60 43 -100 70l121 75q63 -49 106 -83q56 -45 99 -85l209 109l82 -72l-211 -110 q85 -79 156 -172q71 -94 124 -202q56 -116 84 -224q31 -121 31 -238q0 -96 -26 -188q-27 -96 -87 -174t-158 -128q-100 -51 -239 -51q-110 0 -204 38q-90 36 -160 106q-68 69 -106 160q-38 93 -38 200zM246 479q0 -81 25 -149q26 -71 72 -121q46 -51 113 -81q66 -30 150 -30 q85 0 151 30q67 30 113 81q48 52 73 121q26 70 26 149q0 80 -26 150q-25 69 -73 121q-45 49 -113 80q-66 30 -151 30q-84 0 -150 -30q-68 -31 -113 -80q-46 -50 -72 -121q-25 -68 -25 -150z" />
<glyph unicode="&#xf1;" horiz-adv-x="1189" d="M176 958h133q4 -39 6 -86q2 -62 2 -77h5q40 83 133 136q91 52 194 52q182 0 274 -109q91 -107 91 -286v-588h-140v530q0 76 -12 138t-42 105q-31 45 -80 69q-50 24 -126 24q-56 0 -107 -22q-53 -22 -93 -69q-43 -49 -66 -117q-24 -70 -24 -166v-492h-140v748q0 18 -2 100 q-1 60 -6 110zM268 1180q5 35 20 77q14 39 36 69t54 48q33 19 79 19q37 0 74 -15q50 -20 75 -32q11 -5 35.5 -16t36.5 -16q37 -16 65 -16q48 0 69 32q22 32 32 71h88q-6 -40 -20 -79q-15 -41 -35 -68q-22 -30 -56 -48q-33 -18 -78 -18q-39 0 -75 14q-41 16 -74 33 q-29 15 -70 33q-32 14 -67 14q-48 0 -69 -32q-22 -33 -32 -70h-88z" />
<glyph unicode="&#xf2;" horiz-adv-x="1251" d="M115 479q0 108 38 201t105 160q68 68 162 105q96 38 205 38q110 0 206 -38q95 -37 162 -105q69 -68 106 -160q38 -93 38 -201q0 -107 -38 -200q-37 -92 -106 -160q-69 -69 -162 -106q-96 -38 -206 -38q-109 0 -205 38q-93 37 -162 106q-67 67 -105 160t-38 200zM262 479 q0 -78 26 -150q26 -71 72 -123q45 -51 114 -82q66 -30 151 -30q83 0 151 30q70 31 115 82q48 54 73 123t25 150q0 82 -25 151t-73 123q-47 53 -115 83q-67 30 -151 30q-85 0 -151 -30q-68 -31 -114 -83q-46 -53 -72 -123q-26 -72 -26 -151zM313 1450h187l205 -295h-121z" />
<glyph unicode="&#xf3;" horiz-adv-x="1251" d="M115 479q0 108 38 201t105 160q68 68 162 105q96 38 205 38q110 0 206 -38q95 -37 162 -105q69 -68 106 -160q38 -93 38 -201q0 -107 -38 -200q-37 -92 -106 -160q-69 -69 -162 -106q-96 -38 -206 -38q-109 0 -205 38q-93 37 -162 106q-67 67 -105 160t-38 200zM262 479 q0 -78 26 -150q26 -71 72 -123q45 -51 114 -82q66 -30 151 -30q83 0 151 30q70 31 115 82q48 54 73 123t25 150q0 82 -25 151t-73 123q-47 53 -115 83q-67 30 -151 30q-85 0 -151 -30q-68 -31 -114 -83q-46 -53 -72 -123q-26 -72 -26 -151zM541 1155l204 295h187l-270 -295 h-121z" />
<glyph unicode="&#xf4;" horiz-adv-x="1251" d="M115 479q0 108 38 201t105 160q68 68 162 105q96 38 205 38q110 0 206 -38q95 -37 162 -105q69 -68 106 -160q38 -93 38 -201q0 -107 -38 -200q-37 -92 -106 -160q-69 -69 -162 -106q-96 -38 -206 -38q-109 0 -205 38q-93 37 -162 106q-67 67 -105 160t-38 200zM262 479 q0 -78 26 -150q26 -71 72 -123q45 -51 114 -82q66 -30 151 -30q83 0 151 30q70 31 115 82q48 54 73 123t25 150q0 82 -25 151t-73 123q-47 53 -115 83q-67 30 -151 30q-85 0 -151 -30q-68 -31 -114 -83q-46 -53 -72 -123q-26 -72 -26 -151zM319 1155l224 295h164l223 -295 h-135l-170 221l-170 -221h-136z" />
<glyph unicode="&#xf5;" horiz-adv-x="1251" d="M115 479q0 108 38 201t105 160q68 68 162 105q96 38 205 38q110 0 206 -38q95 -37 162 -105q69 -68 106 -160q38 -93 38 -201q0 -107 -38 -200q-37 -92 -106 -160q-69 -69 -162 -106q-96 -38 -206 -38q-109 0 -205 38q-93 37 -162 106q-67 67 -105 160t-38 200zM262 479 q0 -78 26 -150q26 -71 72 -123q45 -51 114 -82q66 -30 151 -30q83 0 151 30q70 31 115 82q48 54 73 123t25 150q0 82 -25 151t-73 123q-47 53 -115 83q-67 30 -151 30q-85 0 -151 -30q-68 -31 -114 -83q-46 -53 -72 -123q-26 -72 -26 -151zM293 1180q6 40 19 77q14 39 36 69 t54 48q33 19 79 19q37 0 75 -15q50 -20 75 -32q12 -5 35.5 -16t35.5 -16q37 -16 66 -16q48 0 69 32q20 30 31 71h88q-7 -45 -19 -79q-14 -38 -36 -68q-23 -30 -55 -48q-33 -18 -78 -18q-40 0 -76 14q-41 16 -74 33q-34 18 -69 33q-32 14 -68 14q-47 0 -68 -32 q-22 -33 -32 -70h-88z" />
<glyph unicode="&#xf6;" horiz-adv-x="1251" d="M115 479q0 108 38 201t105 160q68 68 162 105q96 38 205 38q110 0 206 -38q95 -37 162 -105q69 -68 106 -160q38 -93 38 -201q0 -107 -38 -200q-37 -92 -106 -160q-69 -69 -162 -106q-96 -38 -206 -38q-109 0 -205 38q-93 37 -162 106q-67 67 -105 160t-38 200zM262 479 q0 -78 26 -150q26 -71 72 -123q45 -51 114 -82q66 -30 151 -30q83 0 151 30q70 31 115 82q48 54 73 123t25 150q0 82 -25 151t-73 123q-47 53 -115 83q-67 30 -151 30q-85 0 -151 -30q-68 -31 -114 -83q-46 -53 -72 -123q-26 -72 -26 -151zM324 1325q0 42 28 73q29 32 76 32 t76 -32q28 -31 28 -73t-28 -73t-76 -31t-76 31t-28 73zM717 1325q0 42 28 73q29 32 76 32t76 -32t29 -73t-29 -73q-28 -31 -76 -31t-76 31t-28 73z" />
<glyph unicode="&#xf7;" horiz-adv-x="1363" d="M160 559v123h1044v-123h-1044zM571 289q0 41 31 77q29 33 80 33t80 -33q31 -36 31 -77t-31 -77q-30 -34 -80 -34t-80 34q-31 36 -31 77zM571 952q0 41 31 77q30 34 80 34t80 -34q31 -36 31 -77q0 -40 -31 -76q-30 -34 -80 -34t-80 34q-31 36 -31 76z" />
<glyph unicode="&#xf8;" horiz-adv-x="1251" d="M98 6l135 139q-59 68 -88 151q-30 86 -30 183q0 108 38 201t105 160t161 105t204 38q92 0 178 -28q80 -26 147 -78l135 139l66 -64l-135 -139q54 -61 89 -148q34 -84 34 -186q0 -107 -38 -200q-38 -92 -107 -160q-71 -70 -163 -106q-96 -38 -206 -38q-98 0 -180 29 q-80 28 -142 78l-137 -139zM256 479q0 -73 17 -133q18 -62 53 -108l536 550q-42 42 -103 62q-60 20 -134 20q-87 0 -154 -30q-66 -29 -116 -84q-47 -51 -73 -124q-26 -72 -26 -153zM385 168q45 -37 105 -58q61 -22 131 -22q83 0 154 31q67 29 118 83q49 52 76 124 q26 69 26 153q0 65 -18 130q-18 66 -55 110z" />
<glyph unicode="&#xf9;" horiz-adv-x="1189" d="M176 371v587h139v-530q0 -70 13 -137q12 -63 42 -106q30 -44 80 -68q52 -25 125 -25q54 0 108 23t93 68q43 49 66 117q24 71 24 167v491h140v-747q0 -18 2 -100q2 -61 6 -111h-133q-6 51 -7 86q-2 62 -2 78h-4q-40 -83 -133 -136q-92 -53 -194 -53q-182 0 -274 109 q-91 107 -91 287zM297 1450h186l205 -295h-121z" />
<glyph unicode="&#xfa;" horiz-adv-x="1189" d="M176 371v587h139v-530q0 -70 13 -137q12 -63 42 -106q30 -44 80 -68q52 -25 125 -25q54 0 108 23t93 68q43 49 66 117q24 71 24 167v491h140v-747q0 -18 2 -100q2 -61 6 -111h-133q-6 51 -7 86q-2 62 -2 78h-4q-40 -83 -133 -136q-92 -53 -194 -53q-182 0 -274 109 q-91 107 -91 287zM494 1155l204 295h187l-271 -295h-120z" />
<glyph unicode="&#xfb;" horiz-adv-x="1189" d="M176 371v587h139v-530q0 -70 13 -137q12 -63 42 -106q30 -44 80 -68q52 -25 125 -25q54 0 108 23t93 68q43 49 66 117q24 71 24 167v491h140v-747q0 -18 2 -100q2 -61 6 -111h-133q-6 51 -7 86q-2 62 -2 78h-4q-40 -83 -133 -136q-92 -53 -194 -53q-182 0 -274 109 q-91 107 -91 287zM287 1155l223 295h164l223 -295h-135l-170 221l-170 -221h-135z" />
<glyph unicode="&#xfc;" horiz-adv-x="1189" d="M176 371v587h139v-530q0 -70 13 -137q12 -63 42 -106q30 -44 80 -68q52 -25 125 -25q54 0 108 23t93 68q43 49 66 117q24 71 24 167v491h140v-747q0 -18 2 -100q2 -61 6 -111h-133q-6 51 -7 86q-2 62 -2 78h-4q-40 -83 -133 -136q-92 -53 -194 -53q-182 0 -274 109 q-91 107 -91 287zM291 1325q0 42 28 73q29 32 76 32t76 -32t29 -73t-29 -73q-28 -31 -76 -31t-76 31t-28 73zM684 1325q0 41 29 73t75 32q47 0 76 -32t29 -73t-29 -73q-28 -31 -76 -31q-47 0 -75 31q-29 32 -29 73z" />
<glyph unicode="&#xfd;" horiz-adv-x="999" d="M33 958h155l326 -808h4l297 808h152l-478 -1206q-44 -112 -109 -177q-67 -67 -192 -67q-58 0 -125 13l15 127q51 -17 102 -17q72 0 113 44q43 46 72 126l77 201zM426 1155l205 295h186l-270 -295h-121z" />
<glyph unicode="&#xfe;" horiz-adv-x="1296" d="M188 -492v2040h136v-755h4q61 94 156 142t200 48t198 -38q91 -37 157 -105q68 -69 105 -160q38 -93 38 -201q0 -107 -38 -200q-37 -91 -105 -160q-68 -70 -157 -106q-93 -38 -198 -38q-106 0 -202 47q-95 47 -154 140h-4v-654h-136zM311 479q0 -79 26 -149 q26 -71 72 -121q47 -51 112 -81q66 -30 151 -30q84 0 150 30q69 31 114 81q48 52 73 121q25 68 25 149q0 82 -25 150q-25 69 -73 121q-44 48 -114 80q-66 30 -150 30q-85 0 -151 -30q-67 -30 -112 -80q-46 -50 -72 -121q-26 -70 -26 -150z" />
<glyph unicode="&#xff;" horiz-adv-x="999" d="M33 958h155l326 -808h4l297 808h152l-478 -1206q-44 -112 -109 -177q-67 -67 -192 -67q-58 0 -125 13l15 127q51 -17 102 -17q72 0 113 44q43 46 72 126l77 201zM215 1325q0 41 29 73t75 32q47 0 76 -32t29 -73t-29 -73q-28 -31 -76 -31q-47 0 -75 31q-29 32 -29 73z M608 1325q0 41 29 73t76 32q46 0 75 -32t29 -73t-29 -73q-28 -31 -75 -31q-48 0 -76 31q-29 32 -29 73z" />
<glyph unicode="&#x152;" horiz-adv-x="2031" d="M145 725q0 178 68 316q67 137 177 228q109 91 246 136t271 45h1004v-131h-682v-500h633v-129h-633v-559h706v-131h-1028q-135 0 -271 45q-137 45 -246 136t-177 227t-68 317zM301 725q0 -114 40 -219q41 -108 120 -190q80 -83 202 -134q121 -51 285 -51h133v1188h-133 q-164 0 -285 -51q-122 -51 -202 -134q-79 -82 -120 -190q-40 -105 -40 -219z" />
<glyph unicode="&#x153;" horiz-adv-x="2035" d="M115 479q0 108 38 201t105 160t161 105t204 38q150 0 256 -62q108 -63 174 -171q63 108 168 171q103 62 239 62q112 0 200 -38q87 -37 144 -102q56 -64 87 -151q30 -85 30 -184v-31q0 -11 -2 -35h-799q1 -68 30 -135q26 -61 75 -110t111 -75q67 -28 139 -28q107 0 187 50 q79 49 120 116l104 -82q-86 -109 -189 -155q-107 -48 -224 -48q-141 0 -248 63t-170 171q-66 -108 -175 -171q-110 -63 -257 -63q-110 0 -204 38q-92 37 -161 106q-67 67 -105 160t-38 200zM258 479q0 -78 26 -150q26 -71 73 -123q47 -51 115 -82q66 -30 151 -30 q83 0 151 30q69 31 116 82q49 53 74 123q25 69 25 150q0 82 -25 151q-25 70 -74 123q-48 53 -116 83t-151 30q-85 0 -151 -30q-67 -30 -115 -83q-47 -52 -73 -123q-26 -72 -26 -151zM1126 553h654q-6 136 -87 224q-81 89 -231 89q-70 0 -129 -25q-56 -24 -104 -70 q-45 -44 -72 -100q-26 -56 -31 -118z" />
<glyph unicode="&#x178;" horiz-adv-x="1232" d="M0 1450h184l437 -702l440 702h172l-543 -825v-625h-147v625zM319 1735q0 40 29 72t76 32t76 -32q28 -31 28 -72q0 -42 -28 -73q-29 -32 -76 -32t-76 32t-29 73zM713 1735q0 41 28 72q29 32 76 32t76 -32t29 -72q0 -41 -29 -73t-76 -32t-76 32q-28 31 -28 73z" />
<glyph unicode="&#x2c6;" horiz-adv-x="491" d="M-59 1155l223 295h164l223 -295h-135l-170 221l-170 -221h-135z" />
<glyph unicode="&#x2dc;" horiz-adv-x="491" d="M-86 1180q6 40 19 77q13 39 36 69q22 29 55 48t78 19q38 0 75 -15q50 -20 75 -32q11 -5 35.5 -16t36.5 -16q37 -16 65 -16q48 0 69 32q20 30 31 71h89q-6 -40 -20 -79q-14 -38 -36 -68q-23 -30 -55 -48q-33 -18 -78 -18q-40 0 -76 14q-37 14 -73 33q-30 15 -70 33 q-32 14 -68 14q-47 0 -68 -32q-22 -33 -32 -70h-88z" />
<glyph unicode="&#x2000;" horiz-adv-x="967" />
<glyph unicode="&#x2001;" horiz-adv-x="1935" />
<glyph unicode="&#x2002;" horiz-adv-x="967" />
<glyph unicode="&#x2003;" horiz-adv-x="1935" />
<glyph unicode="&#x2004;" horiz-adv-x="645" />
<glyph unicode="&#x2005;" horiz-adv-x="483" />
<glyph unicode="&#x2006;" horiz-adv-x="322" />
<glyph unicode="&#x2007;" horiz-adv-x="322" />
<glyph unicode="&#x2008;" horiz-adv-x="241" />
<glyph unicode="&#x2009;" horiz-adv-x="387" />
<glyph unicode="&#x200a;" horiz-adv-x="107" />
<glyph unicode="&#x2010;" horiz-adv-x="655" d="M98 438v117h459v-117h-459z" />
<glyph unicode="&#x2011;" horiz-adv-x="655" d="M98 438v117h459v-117h-459z" />
<glyph unicode="&#x2012;" horiz-adv-x="655" d="M98 438v117h459v-117h-459z" />
<glyph unicode="&#x2013;" horiz-adv-x="819" d="M61 438v117h697v-117h-697z" />
<glyph unicode="&#x2014;" horiz-adv-x="1228" d="M61 438v117h1106v-117h-1106z" />
<glyph unicode="&#x2018;" horiz-adv-x="454" d="M86 969l166 481h117l-138 -481h-145z" />
<glyph unicode="&#x2019;" horiz-adv-x="454" d="M86 969l137 481h146l-166 -481h-117z" />
<glyph unicode="&#x201a;" horiz-adv-x="454" d="M86 -287l137 482h146l-166 -482h-117z" />
<glyph unicode="&#x201c;" horiz-adv-x="792" d="M86 969l166 481h117l-138 -481h-145zM424 969l166 481h117l-138 -481h-145z" />
<glyph unicode="&#x201d;" horiz-adv-x="792" d="M86 969l137 481h146l-166 -481h-117zM424 969l137 481h146l-166 -481h-117z" />
<glyph unicode="&#x201e;" horiz-adv-x="792" d="M86 -287l137 482h146l-166 -482h-117zM424 -287l137 482h146l-166 -482h-117z" />
<glyph unicode="&#x2022;" horiz-adv-x="1024" d="M150 725q0 76 28 141t78 115t115 78t141 28t141 -28t115 -78t78 -115t28 -141t-28 -141t-78 -115t-115 -78q-67 -29 -141 -29t-141 29q-65 28 -115 78t-78 115t-28 141z" />
<glyph unicode="&#x2026;" horiz-adv-x="2048" d="M231 98q0 41 31 77q30 34 80 34t80 -34q31 -36 31 -77q0 -40 -31 -76q-30 -34 -80 -34t-80 34q-31 36 -31 76zM913 98q0 41 31 77q30 34 80 34t80 -34q31 -36 31 -77q0 -40 -31 -76q-30 -34 -80 -34t-80 34q-31 36 -31 76zM1595 98q0 41 31 77q30 34 80 34t80 -34 q31 -36 31 -77q0 -40 -31 -76q-30 -34 -80 -34t-80 34q-31 36 -31 76z" />
<glyph unicode="&#x202f;" horiz-adv-x="387" />
<glyph unicode="&#x2039;" horiz-adv-x="645" d="M121 492l287 428l96 -68l-236 -360l236 -361l-96 -68z" />
<glyph unicode="&#x203a;" horiz-adv-x="645" d="M141 131l236 361l-236 360l97 68l286 -428l-286 -429z" />
<glyph unicode="&#x205f;" horiz-adv-x="483" />
<glyph unicode="&#x20ac;" d="M25 485l41 113h100q0 1 -1.5 20.5l-2.5 32.5q-2 44 -2 62q0 22 2 72q2 39 6 63h-141l41 113h116q29 125 85 223q56 97 137 166q80 68 178 102q100 35 209 35q85 0 165 -18t140 -48l-51 -125q-106 62 -261 62q-177 0 -293 -107t-159 -290h614l-37 -113h-596q-3 -21 -7 -65 q-3 -35 -3 -68q0 -13 2 -59q1 -34 6 -58h525l-37 -113h-473q16 -89 57 -161q39 -70 101 -124q60 -52 138 -80q79 -28 162 -28q78 0 149 20t130 62l59 -115q-136 -96 -356 -96q-121 0 -224 44q-97 42 -176 117q-75 72 -122 167q-49 100 -66 194h-155z" />
<glyph unicode="&#x2122;" horiz-adv-x="2048" d="M147 1339v111h674v-111h-272v-733h-123v733h-279zM997 606v844h191l264 -647l264 647h185v-844h-123v709h-4l-285 -709h-80l-285 709h-4v-709h-123z" />
<glyph unicode="&#xe000;" horiz-adv-x="962" d="M0 0v963h963v-963h-963z" />
<glyph unicode="&#xfb01;" horiz-adv-x="1114" d="M25 842v116h200v263q0 163 80 258q79 94 246 94q27 0 57 -3q29 -3 58 -11l-25 -123q-15 4 -45 10q-20 4 -51 4q-55 0 -91 -18t-56 -53q-18 -32 -26 -79q-7 -42 -7 -96v-246h225v-116h-225v-842h-140v842h-200zM760 1327q0 43 31 71q30 27 67 27q38 0 68 -27t30 -71 t-30 -71t-68 -27q-37 0 -67 27q-31 28 -31 71zM786 0v958h140v-958h-140z" />
<glyph unicode="&#xfb02;" horiz-adv-x="1114" d="M25 842v116h200v263q0 163 80 258q79 94 246 94q27 0 57 -3q29 -3 58 -11l-25 -123q-15 4 -45 10q-20 4 -51 4q-55 0 -91 -18t-56 -53q-18 -32 -26 -79q-7 -42 -7 -96v-246h225v-116h-225v-842h-140v842h-200zM786 0v1548h140v-1548h-140z" />
</font>
</defs>
</svg>
